%TF.GenerationSoftware,KiCad,Pcbnew,9.0.2*%
%TF.CreationDate,2026-04-16T16:51:41-04:00*%
%TF.ProjectId,Tractian_Edge_Node,54726163-7469-4616-9e5f-456467655f4e,rev?*%
%TF.SameCoordinates,Original*%
%TF.FileFunction,Paste,Top*%
%TF.FilePolarity,Positive*%
%FSLAX46Y46*%
G04 Gerber Fmt 4.6, Leading zero omitted, Abs format (unit mm)*
G04 Created by KiCad (PCBNEW 9.0.2) date 2026-04-16 16:51:41*
%MOMM*%
%LPD*%
G01*
G04 APERTURE LIST*
G04 Aperture macros list*
%AMRoundRect*
0 Rectangle with rounded corners*
0 $1 Rounding radius*
0 $2 $3 $4 $5 $6 $7 $8 $9 X,Y pos of 4 corners*
0 Add a 4 corners polygon primitive as box body*
4,1,4,$2,$3,$4,$5,$6,$7,$8,$9,$2,$3,0*
0 Add four circle primitives for the rounded corners*
1,1,$1+$1,$2,$3*
1,1,$1+$1,$4,$5*
1,1,$1+$1,$6,$7*
1,1,$1+$1,$8,$9*
0 Add four rect primitives between the rounded corners*
20,1,$1+$1,$2,$3,$4,$5,0*
20,1,$1+$1,$4,$5,$6,$7,0*
20,1,$1+$1,$6,$7,$8,$9,0*
20,1,$1+$1,$8,$9,$2,$3,0*%
G04 Aperture macros list end*
%ADD10R,1.500000X0.900000*%
%ADD11R,0.900000X1.500000*%
%ADD12R,0.900000X0.900000*%
%ADD13RoundRect,0.250000X-0.262500X-0.450000X0.262500X-0.450000X0.262500X0.450000X-0.262500X0.450000X0*%
%ADD14RoundRect,0.250000X-2.025000X-2.375000X2.025000X-2.375000X2.025000X2.375000X-2.025000X2.375000X0*%
%ADD15RoundRect,0.250000X-2.050000X-0.300000X2.050000X-0.300000X2.050000X0.300000X-2.050000X0.300000X0*%
%ADD16RoundRect,0.250000X-1.000000X-0.650000X1.000000X-0.650000X1.000000X0.650000X-1.000000X0.650000X0*%
%ADD17RoundRect,0.250000X-0.250000X-0.475000X0.250000X-0.475000X0.250000X0.475000X-0.250000X0.475000X0*%
%ADD18RoundRect,0.150000X-0.875000X-0.150000X0.875000X-0.150000X0.875000X0.150000X-0.875000X0.150000X0*%
%ADD19R,2.540000X3.510000*%
%ADD20RoundRect,0.375000X-0.625000X-0.375000X0.625000X-0.375000X0.625000X0.375000X-0.625000X0.375000X0*%
%ADD21RoundRect,0.500000X-0.500000X-1.400000X0.500000X-1.400000X0.500000X1.400000X-0.500000X1.400000X0*%
%ADD22R,2.900000X5.400000*%
G04 APERTURE END LIST*
D10*
%TO.C,U3*%
X96735000Y-740000D03*
X96735000Y-2010000D03*
X96735000Y-3280000D03*
X96735000Y-4550000D03*
X96735000Y-5820000D03*
X96735000Y-7090000D03*
X96735000Y-8360000D03*
X96735000Y-9630000D03*
X96735000Y-10900000D03*
X96735000Y-12170000D03*
X96735000Y-13440000D03*
X96735000Y-14710000D03*
X96735000Y-15980000D03*
X96735000Y-17250000D03*
D11*
X94970000Y-18500000D03*
X93700000Y-18500000D03*
X92430000Y-18500000D03*
X91160000Y-18500000D03*
X89890000Y-18500000D03*
X88620000Y-18500000D03*
X87350000Y-18500000D03*
X86080000Y-18500000D03*
X84810000Y-18500000D03*
X83540000Y-18500000D03*
X82270000Y-18500000D03*
X81000000Y-18500000D03*
D10*
X79235000Y-17250000D03*
X79235000Y-15980000D03*
X79235000Y-14710000D03*
X79235000Y-13440000D03*
X79235000Y-12170000D03*
X79235000Y-10900000D03*
X79235000Y-9630000D03*
X79235000Y-8360000D03*
X79235000Y-7090000D03*
X79235000Y-5820000D03*
X79235000Y-4550000D03*
X79235000Y-3280000D03*
X79235000Y-2010000D03*
X79235000Y-740000D03*
D12*
X87885000Y-9860000D03*
X87885000Y-8460000D03*
X87885000Y-7060000D03*
X86485000Y-9860000D03*
X86485000Y-8460000D03*
X86485000Y-7060000D03*
X85085000Y-9860000D03*
X85085000Y-8460000D03*
X85085000Y-7060000D03*
%TD*%
D13*
%TO.C,R15*%
X71012500Y-32100000D03*
X69187500Y-32100000D03*
%TD*%
D14*
%TO.C,U1*%
X125115000Y-6625000D03*
X125115000Y-12175000D03*
X129965000Y-6625000D03*
X129965000Y-12175000D03*
D15*
X118390000Y-6000000D03*
X118390000Y-7700000D03*
X118390000Y-9400000D03*
X118390000Y-11100000D03*
X118390000Y-12800000D03*
%TD*%
D16*
%TO.C,D2*%
X113700000Y-17200000D03*
X117700000Y-17200000D03*
%TD*%
D17*
%TO.C,C11*%
X57250000Y-39500000D03*
X55350000Y-39500000D03*
%TD*%
D13*
%TO.C,R14*%
X66412500Y-35900000D03*
X64587500Y-35900000D03*
%TD*%
%TO.C,R12*%
X60100000Y-35700000D03*
X61925000Y-35700000D03*
%TD*%
%TO.C,R13*%
X64600000Y-32200000D03*
X66425000Y-32200000D03*
%TD*%
%TO.C,R16*%
X71012500Y-34800000D03*
X69187500Y-34800000D03*
%TD*%
%TO.C,R7*%
X52712500Y-32100000D03*
X50887500Y-32100000D03*
%TD*%
%TO.C,R9*%
X57425000Y-32200000D03*
X55600000Y-32200000D03*
%TD*%
%TO.C,R11*%
X62112500Y-32200000D03*
X60287500Y-32200000D03*
%TD*%
D17*
%TO.C,C10*%
X50950000Y-39200000D03*
X52850000Y-39200000D03*
%TD*%
%TO.C,C9*%
X46450000Y-39200000D03*
X48350000Y-39200000D03*
%TD*%
%TO.C,C6*%
X72950000Y-2000000D03*
X71050000Y-2000000D03*
%TD*%
%TO.C,C5*%
X75235000Y-2510000D03*
X77135000Y-2510000D03*
%TD*%
%TO.C,C13*%
X66450000Y-39400000D03*
X64550000Y-39400000D03*
%TD*%
D13*
%TO.C,R3*%
X86787500Y-53801030D03*
X84962500Y-53801030D03*
%TD*%
D18*
%TO.C,U4*%
X76150000Y-48055000D03*
X76150000Y-49325000D03*
X76150000Y-50595000D03*
X76150000Y-51865000D03*
X76150000Y-53135000D03*
X76150000Y-54405000D03*
X76150000Y-55675000D03*
X76150000Y-56945000D03*
X66850000Y-56945000D03*
X66850000Y-55675000D03*
X66850000Y-54405000D03*
X66850000Y-53135000D03*
X66850000Y-51865000D03*
X66850000Y-50595000D03*
X66850000Y-49325000D03*
X66850000Y-48055000D03*
%TD*%
D17*
%TO.C,C12*%
X61750000Y-39300000D03*
X59850000Y-39300000D03*
%TD*%
D13*
%TO.C,R10*%
X57412500Y-35700000D03*
X55587500Y-35700000D03*
%TD*%
D17*
%TO.C,C4*%
X101430000Y-57250000D03*
X99530000Y-57250000D03*
%TD*%
%TO.C,C3*%
X101430000Y-54240000D03*
X99530000Y-54240000D03*
%TD*%
D13*
%TO.C,R2*%
X47312500Y-16200000D03*
X45487500Y-16200000D03*
%TD*%
D17*
%TO.C,C7*%
X51550000Y-13300000D03*
X49650000Y-13300000D03*
%TD*%
%TO.C,C8*%
X81450000Y-55000000D03*
X79550000Y-55000000D03*
%TD*%
D13*
%TO.C,R4*%
X86787500Y-56751030D03*
X84962500Y-56751030D03*
%TD*%
D16*
%TO.C,D1*%
X96235000Y-55010000D03*
X92235000Y-55010000D03*
%TD*%
D13*
%TO.C,R8*%
X52812500Y-35800000D03*
X50987500Y-35800000D03*
%TD*%
D17*
%TO.C,C14*%
X70400000Y-39000000D03*
X68500000Y-39000000D03*
%TD*%
D19*
%TO.C,BT1*%
X102415000Y-40010000D03*
X73055000Y-40010000D03*
%TD*%
D13*
%TO.C,R5*%
X48012500Y-32100000D03*
X46187500Y-32100000D03*
%TD*%
D20*
%TO.C,U2*%
X79235000Y-66110000D03*
D21*
X85535000Y-63810000D03*
D20*
X79235000Y-63810000D03*
X79235000Y-61510000D03*
%TD*%
D22*
%TO.C,L1*%
X113150000Y-8700000D03*
X103250000Y-8700000D03*
%TD*%
D13*
%TO.C,R6*%
X48112500Y-35800000D03*
X46287500Y-35800000D03*
%TD*%
%TO.C,R1*%
X45487500Y-13250000D03*
X47312500Y-13250000D03*
%TD*%
M02*
