%TF.GenerationSoftware,KiCad,Pcbnew,9.0.2*%
%TF.CreationDate,2026-04-16T16:51:42-04:00*%
%TF.ProjectId,Tractian_Edge_Node,54726163-7469-4616-9e5f-456467655f4e,rev?*%
%TF.SameCoordinates,Original*%
%TF.FileFunction,Legend,Top*%
%TF.FilePolarity,Positive*%
%FSLAX46Y46*%
G04 Gerber Fmt 4.6, Leading zero omitted, Abs format (unit mm)*
G04 Created by KiCad (PCBNEW 9.0.2) date 2026-04-16 16:51:42*
%MOMM*%
%LPD*%
G01*
G04 APERTURE LIST*
%ADD10C,0.150000*%
%ADD11C,0.120000*%
G04 APERTURE END LIST*
D10*
X76939819Y-18161904D02*
X77749342Y-18161904D01*
X77749342Y-18161904D02*
X77844580Y-18114285D01*
X77844580Y-18114285D02*
X77892200Y-18066666D01*
X77892200Y-18066666D02*
X77939819Y-17971428D01*
X77939819Y-17971428D02*
X77939819Y-17780952D01*
X77939819Y-17780952D02*
X77892200Y-17685714D01*
X77892200Y-17685714D02*
X77844580Y-17638095D01*
X77844580Y-17638095D02*
X77749342Y-17590476D01*
X77749342Y-17590476D02*
X76939819Y-17590476D01*
X76939819Y-17209523D02*
X76939819Y-16590476D01*
X76939819Y-16590476D02*
X77320771Y-16923809D01*
X77320771Y-16923809D02*
X77320771Y-16780952D01*
X77320771Y-16780952D02*
X77368390Y-16685714D01*
X77368390Y-16685714D02*
X77416009Y-16638095D01*
X77416009Y-16638095D02*
X77511247Y-16590476D01*
X77511247Y-16590476D02*
X77749342Y-16590476D01*
X77749342Y-16590476D02*
X77844580Y-16638095D01*
X77844580Y-16638095D02*
X77892200Y-16685714D01*
X77892200Y-16685714D02*
X77939819Y-16780952D01*
X77939819Y-16780952D02*
X77939819Y-17066666D01*
X77939819Y-17066666D02*
X77892200Y-17161904D01*
X77892200Y-17161904D02*
X77844580Y-17209523D01*
X69457142Y-30904819D02*
X69123809Y-30428628D01*
X68885714Y-30904819D02*
X68885714Y-29904819D01*
X68885714Y-29904819D02*
X69266666Y-29904819D01*
X69266666Y-29904819D02*
X69361904Y-29952438D01*
X69361904Y-29952438D02*
X69409523Y-30000057D01*
X69409523Y-30000057D02*
X69457142Y-30095295D01*
X69457142Y-30095295D02*
X69457142Y-30238152D01*
X69457142Y-30238152D02*
X69409523Y-30333390D01*
X69409523Y-30333390D02*
X69361904Y-30381009D01*
X69361904Y-30381009D02*
X69266666Y-30428628D01*
X69266666Y-30428628D02*
X68885714Y-30428628D01*
X70409523Y-30904819D02*
X69838095Y-30904819D01*
X70123809Y-30904819D02*
X70123809Y-29904819D01*
X70123809Y-29904819D02*
X70028571Y-30047676D01*
X70028571Y-30047676D02*
X69933333Y-30142914D01*
X69933333Y-30142914D02*
X69838095Y-30190533D01*
X71314285Y-29904819D02*
X70838095Y-29904819D01*
X70838095Y-29904819D02*
X70790476Y-30381009D01*
X70790476Y-30381009D02*
X70838095Y-30333390D01*
X70838095Y-30333390D02*
X70933333Y-30285771D01*
X70933333Y-30285771D02*
X71171428Y-30285771D01*
X71171428Y-30285771D02*
X71266666Y-30333390D01*
X71266666Y-30333390D02*
X71314285Y-30381009D01*
X71314285Y-30381009D02*
X71361904Y-30476247D01*
X71361904Y-30476247D02*
X71361904Y-30714342D01*
X71361904Y-30714342D02*
X71314285Y-30809580D01*
X71314285Y-30809580D02*
X71266666Y-30857200D01*
X71266666Y-30857200D02*
X71171428Y-30904819D01*
X71171428Y-30904819D02*
X70933333Y-30904819D01*
X70933333Y-30904819D02*
X70838095Y-30857200D01*
X70838095Y-30857200D02*
X70790476Y-30809580D01*
X125278095Y-2204819D02*
X125278095Y-3014342D01*
X125278095Y-3014342D02*
X125325714Y-3109580D01*
X125325714Y-3109580D02*
X125373333Y-3157200D01*
X125373333Y-3157200D02*
X125468571Y-3204819D01*
X125468571Y-3204819D02*
X125659047Y-3204819D01*
X125659047Y-3204819D02*
X125754285Y-3157200D01*
X125754285Y-3157200D02*
X125801904Y-3109580D01*
X125801904Y-3109580D02*
X125849523Y-3014342D01*
X125849523Y-3014342D02*
X125849523Y-2204819D01*
X126849523Y-3204819D02*
X126278095Y-3204819D01*
X126563809Y-3204819D02*
X126563809Y-2204819D01*
X126563809Y-2204819D02*
X126468571Y-2347676D01*
X126468571Y-2347676D02*
X126373333Y-2442914D01*
X126373333Y-2442914D02*
X126278095Y-2490533D01*
X124533333Y-15309580D02*
X124485714Y-15357200D01*
X124485714Y-15357200D02*
X124342857Y-15404819D01*
X124342857Y-15404819D02*
X124247619Y-15404819D01*
X124247619Y-15404819D02*
X124104762Y-15357200D01*
X124104762Y-15357200D02*
X124009524Y-15261961D01*
X124009524Y-15261961D02*
X123961905Y-15166723D01*
X123961905Y-15166723D02*
X123914286Y-14976247D01*
X123914286Y-14976247D02*
X123914286Y-14833390D01*
X123914286Y-14833390D02*
X123961905Y-14642914D01*
X123961905Y-14642914D02*
X124009524Y-14547676D01*
X124009524Y-14547676D02*
X124104762Y-14452438D01*
X124104762Y-14452438D02*
X124247619Y-14404819D01*
X124247619Y-14404819D02*
X124342857Y-14404819D01*
X124342857Y-14404819D02*
X124485714Y-14452438D01*
X124485714Y-14452438D02*
X124533333Y-14500057D01*
X125485714Y-15404819D02*
X124914286Y-15404819D01*
X125200000Y-15404819D02*
X125200000Y-14404819D01*
X125200000Y-14404819D02*
X125104762Y-14547676D01*
X125104762Y-14547676D02*
X125009524Y-14642914D01*
X125009524Y-14642914D02*
X124914286Y-14690533D01*
X114961905Y-15154819D02*
X114961905Y-14154819D01*
X114961905Y-14154819D02*
X115200000Y-14154819D01*
X115200000Y-14154819D02*
X115342857Y-14202438D01*
X115342857Y-14202438D02*
X115438095Y-14297676D01*
X115438095Y-14297676D02*
X115485714Y-14392914D01*
X115485714Y-14392914D02*
X115533333Y-14583390D01*
X115533333Y-14583390D02*
X115533333Y-14726247D01*
X115533333Y-14726247D02*
X115485714Y-14916723D01*
X115485714Y-14916723D02*
X115438095Y-15011961D01*
X115438095Y-15011961D02*
X115342857Y-15107200D01*
X115342857Y-15107200D02*
X115200000Y-15154819D01*
X115200000Y-15154819D02*
X114961905Y-15154819D01*
X115914286Y-14250057D02*
X115961905Y-14202438D01*
X115961905Y-14202438D02*
X116057143Y-14154819D01*
X116057143Y-14154819D02*
X116295238Y-14154819D01*
X116295238Y-14154819D02*
X116390476Y-14202438D01*
X116390476Y-14202438D02*
X116438095Y-14250057D01*
X116438095Y-14250057D02*
X116485714Y-14345295D01*
X116485714Y-14345295D02*
X116485714Y-14440533D01*
X116485714Y-14440533D02*
X116438095Y-14583390D01*
X116438095Y-14583390D02*
X115866667Y-15154819D01*
X115866667Y-15154819D02*
X116485714Y-15154819D01*
X55657142Y-38179580D02*
X55609523Y-38227200D01*
X55609523Y-38227200D02*
X55466666Y-38274819D01*
X55466666Y-38274819D02*
X55371428Y-38274819D01*
X55371428Y-38274819D02*
X55228571Y-38227200D01*
X55228571Y-38227200D02*
X55133333Y-38131961D01*
X55133333Y-38131961D02*
X55085714Y-38036723D01*
X55085714Y-38036723D02*
X55038095Y-37846247D01*
X55038095Y-37846247D02*
X55038095Y-37703390D01*
X55038095Y-37703390D02*
X55085714Y-37512914D01*
X55085714Y-37512914D02*
X55133333Y-37417676D01*
X55133333Y-37417676D02*
X55228571Y-37322438D01*
X55228571Y-37322438D02*
X55371428Y-37274819D01*
X55371428Y-37274819D02*
X55466666Y-37274819D01*
X55466666Y-37274819D02*
X55609523Y-37322438D01*
X55609523Y-37322438D02*
X55657142Y-37370057D01*
X56609523Y-38274819D02*
X56038095Y-38274819D01*
X56323809Y-38274819D02*
X56323809Y-37274819D01*
X56323809Y-37274819D02*
X56228571Y-37417676D01*
X56228571Y-37417676D02*
X56133333Y-37512914D01*
X56133333Y-37512914D02*
X56038095Y-37560533D01*
X57561904Y-38274819D02*
X56990476Y-38274819D01*
X57276190Y-38274819D02*
X57276190Y-37274819D01*
X57276190Y-37274819D02*
X57180952Y-37417676D01*
X57180952Y-37417676D02*
X57085714Y-37512914D01*
X57085714Y-37512914D02*
X56990476Y-37560533D01*
X64857142Y-34704819D02*
X64523809Y-34228628D01*
X64285714Y-34704819D02*
X64285714Y-33704819D01*
X64285714Y-33704819D02*
X64666666Y-33704819D01*
X64666666Y-33704819D02*
X64761904Y-33752438D01*
X64761904Y-33752438D02*
X64809523Y-33800057D01*
X64809523Y-33800057D02*
X64857142Y-33895295D01*
X64857142Y-33895295D02*
X64857142Y-34038152D01*
X64857142Y-34038152D02*
X64809523Y-34133390D01*
X64809523Y-34133390D02*
X64761904Y-34181009D01*
X64761904Y-34181009D02*
X64666666Y-34228628D01*
X64666666Y-34228628D02*
X64285714Y-34228628D01*
X65809523Y-34704819D02*
X65238095Y-34704819D01*
X65523809Y-34704819D02*
X65523809Y-33704819D01*
X65523809Y-33704819D02*
X65428571Y-33847676D01*
X65428571Y-33847676D02*
X65333333Y-33942914D01*
X65333333Y-33942914D02*
X65238095Y-33990533D01*
X66666666Y-34038152D02*
X66666666Y-34704819D01*
X66428571Y-33657200D02*
X66190476Y-34371485D01*
X66190476Y-34371485D02*
X66809523Y-34371485D01*
X60369642Y-34504819D02*
X60036309Y-34028628D01*
X59798214Y-34504819D02*
X59798214Y-33504819D01*
X59798214Y-33504819D02*
X60179166Y-33504819D01*
X60179166Y-33504819D02*
X60274404Y-33552438D01*
X60274404Y-33552438D02*
X60322023Y-33600057D01*
X60322023Y-33600057D02*
X60369642Y-33695295D01*
X60369642Y-33695295D02*
X60369642Y-33838152D01*
X60369642Y-33838152D02*
X60322023Y-33933390D01*
X60322023Y-33933390D02*
X60274404Y-33981009D01*
X60274404Y-33981009D02*
X60179166Y-34028628D01*
X60179166Y-34028628D02*
X59798214Y-34028628D01*
X61322023Y-34504819D02*
X60750595Y-34504819D01*
X61036309Y-34504819D02*
X61036309Y-33504819D01*
X61036309Y-33504819D02*
X60941071Y-33647676D01*
X60941071Y-33647676D02*
X60845833Y-33742914D01*
X60845833Y-33742914D02*
X60750595Y-33790533D01*
X61702976Y-33600057D02*
X61750595Y-33552438D01*
X61750595Y-33552438D02*
X61845833Y-33504819D01*
X61845833Y-33504819D02*
X62083928Y-33504819D01*
X62083928Y-33504819D02*
X62179166Y-33552438D01*
X62179166Y-33552438D02*
X62226785Y-33600057D01*
X62226785Y-33600057D02*
X62274404Y-33695295D01*
X62274404Y-33695295D02*
X62274404Y-33790533D01*
X62274404Y-33790533D02*
X62226785Y-33933390D01*
X62226785Y-33933390D02*
X61655357Y-34504819D01*
X61655357Y-34504819D02*
X62274404Y-34504819D01*
X64869642Y-31004819D02*
X64536309Y-30528628D01*
X64298214Y-31004819D02*
X64298214Y-30004819D01*
X64298214Y-30004819D02*
X64679166Y-30004819D01*
X64679166Y-30004819D02*
X64774404Y-30052438D01*
X64774404Y-30052438D02*
X64822023Y-30100057D01*
X64822023Y-30100057D02*
X64869642Y-30195295D01*
X64869642Y-30195295D02*
X64869642Y-30338152D01*
X64869642Y-30338152D02*
X64822023Y-30433390D01*
X64822023Y-30433390D02*
X64774404Y-30481009D01*
X64774404Y-30481009D02*
X64679166Y-30528628D01*
X64679166Y-30528628D02*
X64298214Y-30528628D01*
X65822023Y-31004819D02*
X65250595Y-31004819D01*
X65536309Y-31004819D02*
X65536309Y-30004819D01*
X65536309Y-30004819D02*
X65441071Y-30147676D01*
X65441071Y-30147676D02*
X65345833Y-30242914D01*
X65345833Y-30242914D02*
X65250595Y-30290533D01*
X66155357Y-30004819D02*
X66774404Y-30004819D01*
X66774404Y-30004819D02*
X66441071Y-30385771D01*
X66441071Y-30385771D02*
X66583928Y-30385771D01*
X66583928Y-30385771D02*
X66679166Y-30433390D01*
X66679166Y-30433390D02*
X66726785Y-30481009D01*
X66726785Y-30481009D02*
X66774404Y-30576247D01*
X66774404Y-30576247D02*
X66774404Y-30814342D01*
X66774404Y-30814342D02*
X66726785Y-30909580D01*
X66726785Y-30909580D02*
X66679166Y-30957200D01*
X66679166Y-30957200D02*
X66583928Y-31004819D01*
X66583928Y-31004819D02*
X66298214Y-31004819D01*
X66298214Y-31004819D02*
X66202976Y-30957200D01*
X66202976Y-30957200D02*
X66155357Y-30909580D01*
X69457142Y-33604819D02*
X69123809Y-33128628D01*
X68885714Y-33604819D02*
X68885714Y-32604819D01*
X68885714Y-32604819D02*
X69266666Y-32604819D01*
X69266666Y-32604819D02*
X69361904Y-32652438D01*
X69361904Y-32652438D02*
X69409523Y-32700057D01*
X69409523Y-32700057D02*
X69457142Y-32795295D01*
X69457142Y-32795295D02*
X69457142Y-32938152D01*
X69457142Y-32938152D02*
X69409523Y-33033390D01*
X69409523Y-33033390D02*
X69361904Y-33081009D01*
X69361904Y-33081009D02*
X69266666Y-33128628D01*
X69266666Y-33128628D02*
X68885714Y-33128628D01*
X70409523Y-33604819D02*
X69838095Y-33604819D01*
X70123809Y-33604819D02*
X70123809Y-32604819D01*
X70123809Y-32604819D02*
X70028571Y-32747676D01*
X70028571Y-32747676D02*
X69933333Y-32842914D01*
X69933333Y-32842914D02*
X69838095Y-32890533D01*
X71266666Y-32604819D02*
X71076190Y-32604819D01*
X71076190Y-32604819D02*
X70980952Y-32652438D01*
X70980952Y-32652438D02*
X70933333Y-32700057D01*
X70933333Y-32700057D02*
X70838095Y-32842914D01*
X70838095Y-32842914D02*
X70790476Y-33033390D01*
X70790476Y-33033390D02*
X70790476Y-33414342D01*
X70790476Y-33414342D02*
X70838095Y-33509580D01*
X70838095Y-33509580D02*
X70885714Y-33557200D01*
X70885714Y-33557200D02*
X70980952Y-33604819D01*
X70980952Y-33604819D02*
X71171428Y-33604819D01*
X71171428Y-33604819D02*
X71266666Y-33557200D01*
X71266666Y-33557200D02*
X71314285Y-33509580D01*
X71314285Y-33509580D02*
X71361904Y-33414342D01*
X71361904Y-33414342D02*
X71361904Y-33176247D01*
X71361904Y-33176247D02*
X71314285Y-33081009D01*
X71314285Y-33081009D02*
X71266666Y-33033390D01*
X71266666Y-33033390D02*
X71171428Y-32985771D01*
X71171428Y-32985771D02*
X70980952Y-32985771D01*
X70980952Y-32985771D02*
X70885714Y-33033390D01*
X70885714Y-33033390D02*
X70838095Y-33081009D01*
X70838095Y-33081009D02*
X70790476Y-33176247D01*
X51633333Y-30904819D02*
X51300000Y-30428628D01*
X51061905Y-30904819D02*
X51061905Y-29904819D01*
X51061905Y-29904819D02*
X51442857Y-29904819D01*
X51442857Y-29904819D02*
X51538095Y-29952438D01*
X51538095Y-29952438D02*
X51585714Y-30000057D01*
X51585714Y-30000057D02*
X51633333Y-30095295D01*
X51633333Y-30095295D02*
X51633333Y-30238152D01*
X51633333Y-30238152D02*
X51585714Y-30333390D01*
X51585714Y-30333390D02*
X51538095Y-30381009D01*
X51538095Y-30381009D02*
X51442857Y-30428628D01*
X51442857Y-30428628D02*
X51061905Y-30428628D01*
X51966667Y-29904819D02*
X52633333Y-29904819D01*
X52633333Y-29904819D02*
X52204762Y-30904819D01*
X56345833Y-31004819D02*
X56012500Y-30528628D01*
X55774405Y-31004819D02*
X55774405Y-30004819D01*
X55774405Y-30004819D02*
X56155357Y-30004819D01*
X56155357Y-30004819D02*
X56250595Y-30052438D01*
X56250595Y-30052438D02*
X56298214Y-30100057D01*
X56298214Y-30100057D02*
X56345833Y-30195295D01*
X56345833Y-30195295D02*
X56345833Y-30338152D01*
X56345833Y-30338152D02*
X56298214Y-30433390D01*
X56298214Y-30433390D02*
X56250595Y-30481009D01*
X56250595Y-30481009D02*
X56155357Y-30528628D01*
X56155357Y-30528628D02*
X55774405Y-30528628D01*
X56822024Y-31004819D02*
X57012500Y-31004819D01*
X57012500Y-31004819D02*
X57107738Y-30957200D01*
X57107738Y-30957200D02*
X57155357Y-30909580D01*
X57155357Y-30909580D02*
X57250595Y-30766723D01*
X57250595Y-30766723D02*
X57298214Y-30576247D01*
X57298214Y-30576247D02*
X57298214Y-30195295D01*
X57298214Y-30195295D02*
X57250595Y-30100057D01*
X57250595Y-30100057D02*
X57202976Y-30052438D01*
X57202976Y-30052438D02*
X57107738Y-30004819D01*
X57107738Y-30004819D02*
X56917262Y-30004819D01*
X56917262Y-30004819D02*
X56822024Y-30052438D01*
X56822024Y-30052438D02*
X56774405Y-30100057D01*
X56774405Y-30100057D02*
X56726786Y-30195295D01*
X56726786Y-30195295D02*
X56726786Y-30433390D01*
X56726786Y-30433390D02*
X56774405Y-30528628D01*
X56774405Y-30528628D02*
X56822024Y-30576247D01*
X56822024Y-30576247D02*
X56917262Y-30623866D01*
X56917262Y-30623866D02*
X57107738Y-30623866D01*
X57107738Y-30623866D02*
X57202976Y-30576247D01*
X57202976Y-30576247D02*
X57250595Y-30528628D01*
X57250595Y-30528628D02*
X57298214Y-30433390D01*
X60557142Y-31004819D02*
X60223809Y-30528628D01*
X59985714Y-31004819D02*
X59985714Y-30004819D01*
X59985714Y-30004819D02*
X60366666Y-30004819D01*
X60366666Y-30004819D02*
X60461904Y-30052438D01*
X60461904Y-30052438D02*
X60509523Y-30100057D01*
X60509523Y-30100057D02*
X60557142Y-30195295D01*
X60557142Y-30195295D02*
X60557142Y-30338152D01*
X60557142Y-30338152D02*
X60509523Y-30433390D01*
X60509523Y-30433390D02*
X60461904Y-30481009D01*
X60461904Y-30481009D02*
X60366666Y-30528628D01*
X60366666Y-30528628D02*
X59985714Y-30528628D01*
X61509523Y-31004819D02*
X60938095Y-31004819D01*
X61223809Y-31004819D02*
X61223809Y-30004819D01*
X61223809Y-30004819D02*
X61128571Y-30147676D01*
X61128571Y-30147676D02*
X61033333Y-30242914D01*
X61033333Y-30242914D02*
X60938095Y-30290533D01*
X62461904Y-31004819D02*
X61890476Y-31004819D01*
X62176190Y-31004819D02*
X62176190Y-30004819D01*
X62176190Y-30004819D02*
X62080952Y-30147676D01*
X62080952Y-30147676D02*
X61985714Y-30242914D01*
X61985714Y-30242914D02*
X61890476Y-30290533D01*
X51257142Y-37879580D02*
X51209523Y-37927200D01*
X51209523Y-37927200D02*
X51066666Y-37974819D01*
X51066666Y-37974819D02*
X50971428Y-37974819D01*
X50971428Y-37974819D02*
X50828571Y-37927200D01*
X50828571Y-37927200D02*
X50733333Y-37831961D01*
X50733333Y-37831961D02*
X50685714Y-37736723D01*
X50685714Y-37736723D02*
X50638095Y-37546247D01*
X50638095Y-37546247D02*
X50638095Y-37403390D01*
X50638095Y-37403390D02*
X50685714Y-37212914D01*
X50685714Y-37212914D02*
X50733333Y-37117676D01*
X50733333Y-37117676D02*
X50828571Y-37022438D01*
X50828571Y-37022438D02*
X50971428Y-36974819D01*
X50971428Y-36974819D02*
X51066666Y-36974819D01*
X51066666Y-36974819D02*
X51209523Y-37022438D01*
X51209523Y-37022438D02*
X51257142Y-37070057D01*
X52209523Y-37974819D02*
X51638095Y-37974819D01*
X51923809Y-37974819D02*
X51923809Y-36974819D01*
X51923809Y-36974819D02*
X51828571Y-37117676D01*
X51828571Y-37117676D02*
X51733333Y-37212914D01*
X51733333Y-37212914D02*
X51638095Y-37260533D01*
X52828571Y-36974819D02*
X52923809Y-36974819D01*
X52923809Y-36974819D02*
X53019047Y-37022438D01*
X53019047Y-37022438D02*
X53066666Y-37070057D01*
X53066666Y-37070057D02*
X53114285Y-37165295D01*
X53114285Y-37165295D02*
X53161904Y-37355771D01*
X53161904Y-37355771D02*
X53161904Y-37593866D01*
X53161904Y-37593866D02*
X53114285Y-37784342D01*
X53114285Y-37784342D02*
X53066666Y-37879580D01*
X53066666Y-37879580D02*
X53019047Y-37927200D01*
X53019047Y-37927200D02*
X52923809Y-37974819D01*
X52923809Y-37974819D02*
X52828571Y-37974819D01*
X52828571Y-37974819D02*
X52733333Y-37927200D01*
X52733333Y-37927200D02*
X52685714Y-37879580D01*
X52685714Y-37879580D02*
X52638095Y-37784342D01*
X52638095Y-37784342D02*
X52590476Y-37593866D01*
X52590476Y-37593866D02*
X52590476Y-37355771D01*
X52590476Y-37355771D02*
X52638095Y-37165295D01*
X52638095Y-37165295D02*
X52685714Y-37070057D01*
X52685714Y-37070057D02*
X52733333Y-37022438D01*
X52733333Y-37022438D02*
X52828571Y-36974819D01*
X47233333Y-37879580D02*
X47185714Y-37927200D01*
X47185714Y-37927200D02*
X47042857Y-37974819D01*
X47042857Y-37974819D02*
X46947619Y-37974819D01*
X46947619Y-37974819D02*
X46804762Y-37927200D01*
X46804762Y-37927200D02*
X46709524Y-37831961D01*
X46709524Y-37831961D02*
X46661905Y-37736723D01*
X46661905Y-37736723D02*
X46614286Y-37546247D01*
X46614286Y-37546247D02*
X46614286Y-37403390D01*
X46614286Y-37403390D02*
X46661905Y-37212914D01*
X46661905Y-37212914D02*
X46709524Y-37117676D01*
X46709524Y-37117676D02*
X46804762Y-37022438D01*
X46804762Y-37022438D02*
X46947619Y-36974819D01*
X46947619Y-36974819D02*
X47042857Y-36974819D01*
X47042857Y-36974819D02*
X47185714Y-37022438D01*
X47185714Y-37022438D02*
X47233333Y-37070057D01*
X47709524Y-37974819D02*
X47900000Y-37974819D01*
X47900000Y-37974819D02*
X47995238Y-37927200D01*
X47995238Y-37927200D02*
X48042857Y-37879580D01*
X48042857Y-37879580D02*
X48138095Y-37736723D01*
X48138095Y-37736723D02*
X48185714Y-37546247D01*
X48185714Y-37546247D02*
X48185714Y-37165295D01*
X48185714Y-37165295D02*
X48138095Y-37070057D01*
X48138095Y-37070057D02*
X48090476Y-37022438D01*
X48090476Y-37022438D02*
X47995238Y-36974819D01*
X47995238Y-36974819D02*
X47804762Y-36974819D01*
X47804762Y-36974819D02*
X47709524Y-37022438D01*
X47709524Y-37022438D02*
X47661905Y-37070057D01*
X47661905Y-37070057D02*
X47614286Y-37165295D01*
X47614286Y-37165295D02*
X47614286Y-37403390D01*
X47614286Y-37403390D02*
X47661905Y-37498628D01*
X47661905Y-37498628D02*
X47709524Y-37546247D01*
X47709524Y-37546247D02*
X47804762Y-37593866D01*
X47804762Y-37593866D02*
X47995238Y-37593866D01*
X47995238Y-37593866D02*
X48090476Y-37546247D01*
X48090476Y-37546247D02*
X48138095Y-37498628D01*
X48138095Y-37498628D02*
X48185714Y-37403390D01*
X71833333Y-679580D02*
X71785714Y-727200D01*
X71785714Y-727200D02*
X71642857Y-774819D01*
X71642857Y-774819D02*
X71547619Y-774819D01*
X71547619Y-774819D02*
X71404762Y-727200D01*
X71404762Y-727200D02*
X71309524Y-631961D01*
X71309524Y-631961D02*
X71261905Y-536723D01*
X71261905Y-536723D02*
X71214286Y-346247D01*
X71214286Y-346247D02*
X71214286Y-203390D01*
X71214286Y-203390D02*
X71261905Y-12914D01*
X71261905Y-12914D02*
X71309524Y82323D01*
X71309524Y82323D02*
X71404762Y177561D01*
X71404762Y177561D02*
X71547619Y225180D01*
X71547619Y225180D02*
X71642857Y225180D01*
X71642857Y225180D02*
X71785714Y177561D01*
X71785714Y177561D02*
X71833333Y129942D01*
X72690476Y225180D02*
X72500000Y225180D01*
X72500000Y225180D02*
X72404762Y177561D01*
X72404762Y177561D02*
X72357143Y129942D01*
X72357143Y129942D02*
X72261905Y-12914D01*
X72261905Y-12914D02*
X72214286Y-203390D01*
X72214286Y-203390D02*
X72214286Y-584342D01*
X72214286Y-584342D02*
X72261905Y-679580D01*
X72261905Y-679580D02*
X72309524Y-727200D01*
X72309524Y-727200D02*
X72404762Y-774819D01*
X72404762Y-774819D02*
X72595238Y-774819D01*
X72595238Y-774819D02*
X72690476Y-727200D01*
X72690476Y-727200D02*
X72738095Y-679580D01*
X72738095Y-679580D02*
X72785714Y-584342D01*
X72785714Y-584342D02*
X72785714Y-346247D01*
X72785714Y-346247D02*
X72738095Y-251009D01*
X72738095Y-251009D02*
X72690476Y-203390D01*
X72690476Y-203390D02*
X72595238Y-155771D01*
X72595238Y-155771D02*
X72404762Y-155771D01*
X72404762Y-155771D02*
X72309524Y-203390D01*
X72309524Y-203390D02*
X72261905Y-251009D01*
X72261905Y-251009D02*
X72214286Y-346247D01*
X76018333Y-1189580D02*
X75970714Y-1237200D01*
X75970714Y-1237200D02*
X75827857Y-1284819D01*
X75827857Y-1284819D02*
X75732619Y-1284819D01*
X75732619Y-1284819D02*
X75589762Y-1237200D01*
X75589762Y-1237200D02*
X75494524Y-1141961D01*
X75494524Y-1141961D02*
X75446905Y-1046723D01*
X75446905Y-1046723D02*
X75399286Y-856247D01*
X75399286Y-856247D02*
X75399286Y-713390D01*
X75399286Y-713390D02*
X75446905Y-522914D01*
X75446905Y-522914D02*
X75494524Y-427676D01*
X75494524Y-427676D02*
X75589762Y-332438D01*
X75589762Y-332438D02*
X75732619Y-284819D01*
X75732619Y-284819D02*
X75827857Y-284819D01*
X75827857Y-284819D02*
X75970714Y-332438D01*
X75970714Y-332438D02*
X76018333Y-380057D01*
X76923095Y-284819D02*
X76446905Y-284819D01*
X76446905Y-284819D02*
X76399286Y-761009D01*
X76399286Y-761009D02*
X76446905Y-713390D01*
X76446905Y-713390D02*
X76542143Y-665771D01*
X76542143Y-665771D02*
X76780238Y-665771D01*
X76780238Y-665771D02*
X76875476Y-713390D01*
X76875476Y-713390D02*
X76923095Y-761009D01*
X76923095Y-761009D02*
X76970714Y-856247D01*
X76970714Y-856247D02*
X76970714Y-1094342D01*
X76970714Y-1094342D02*
X76923095Y-1189580D01*
X76923095Y-1189580D02*
X76875476Y-1237200D01*
X76875476Y-1237200D02*
X76780238Y-1284819D01*
X76780238Y-1284819D02*
X76542143Y-1284819D01*
X76542143Y-1284819D02*
X76446905Y-1237200D01*
X76446905Y-1237200D02*
X76399286Y-1189580D01*
X64857142Y-38079580D02*
X64809523Y-38127200D01*
X64809523Y-38127200D02*
X64666666Y-38174819D01*
X64666666Y-38174819D02*
X64571428Y-38174819D01*
X64571428Y-38174819D02*
X64428571Y-38127200D01*
X64428571Y-38127200D02*
X64333333Y-38031961D01*
X64333333Y-38031961D02*
X64285714Y-37936723D01*
X64285714Y-37936723D02*
X64238095Y-37746247D01*
X64238095Y-37746247D02*
X64238095Y-37603390D01*
X64238095Y-37603390D02*
X64285714Y-37412914D01*
X64285714Y-37412914D02*
X64333333Y-37317676D01*
X64333333Y-37317676D02*
X64428571Y-37222438D01*
X64428571Y-37222438D02*
X64571428Y-37174819D01*
X64571428Y-37174819D02*
X64666666Y-37174819D01*
X64666666Y-37174819D02*
X64809523Y-37222438D01*
X64809523Y-37222438D02*
X64857142Y-37270057D01*
X65809523Y-38174819D02*
X65238095Y-38174819D01*
X65523809Y-38174819D02*
X65523809Y-37174819D01*
X65523809Y-37174819D02*
X65428571Y-37317676D01*
X65428571Y-37317676D02*
X65333333Y-37412914D01*
X65333333Y-37412914D02*
X65238095Y-37460533D01*
X66142857Y-37174819D02*
X66761904Y-37174819D01*
X66761904Y-37174819D02*
X66428571Y-37555771D01*
X66428571Y-37555771D02*
X66571428Y-37555771D01*
X66571428Y-37555771D02*
X66666666Y-37603390D01*
X66666666Y-37603390D02*
X66714285Y-37651009D01*
X66714285Y-37651009D02*
X66761904Y-37746247D01*
X66761904Y-37746247D02*
X66761904Y-37984342D01*
X66761904Y-37984342D02*
X66714285Y-38079580D01*
X66714285Y-38079580D02*
X66666666Y-38127200D01*
X66666666Y-38127200D02*
X66571428Y-38174819D01*
X66571428Y-38174819D02*
X66285714Y-38174819D01*
X66285714Y-38174819D02*
X66190476Y-38127200D01*
X66190476Y-38127200D02*
X66142857Y-38079580D01*
X89271666Y-58979819D02*
X89271666Y-59694104D01*
X89271666Y-59694104D02*
X89224047Y-59836961D01*
X89224047Y-59836961D02*
X89128809Y-59932200D01*
X89128809Y-59932200D02*
X88985952Y-59979819D01*
X88985952Y-59979819D02*
X88890714Y-59979819D01*
X90271666Y-59979819D02*
X89700238Y-59979819D01*
X89985952Y-59979819D02*
X89985952Y-58979819D01*
X89985952Y-58979819D02*
X89890714Y-59122676D01*
X89890714Y-59122676D02*
X89795476Y-59217914D01*
X89795476Y-59217914D02*
X89700238Y-59265533D01*
X85708333Y-52605849D02*
X85375000Y-52129658D01*
X85136905Y-52605849D02*
X85136905Y-51605849D01*
X85136905Y-51605849D02*
X85517857Y-51605849D01*
X85517857Y-51605849D02*
X85613095Y-51653468D01*
X85613095Y-51653468D02*
X85660714Y-51701087D01*
X85660714Y-51701087D02*
X85708333Y-51796325D01*
X85708333Y-51796325D02*
X85708333Y-51939182D01*
X85708333Y-51939182D02*
X85660714Y-52034420D01*
X85660714Y-52034420D02*
X85613095Y-52082039D01*
X85613095Y-52082039D02*
X85517857Y-52129658D01*
X85517857Y-52129658D02*
X85136905Y-52129658D01*
X86041667Y-51605849D02*
X86660714Y-51605849D01*
X86660714Y-51605849D02*
X86327381Y-51986801D01*
X86327381Y-51986801D02*
X86470238Y-51986801D01*
X86470238Y-51986801D02*
X86565476Y-52034420D01*
X86565476Y-52034420D02*
X86613095Y-52082039D01*
X86613095Y-52082039D02*
X86660714Y-52177277D01*
X86660714Y-52177277D02*
X86660714Y-52415372D01*
X86660714Y-52415372D02*
X86613095Y-52510610D01*
X86613095Y-52510610D02*
X86565476Y-52558230D01*
X86565476Y-52558230D02*
X86470238Y-52605849D01*
X86470238Y-52605849D02*
X86184524Y-52605849D01*
X86184524Y-52605849D02*
X86089286Y-52558230D01*
X86089286Y-52558230D02*
X86041667Y-52510610D01*
X70738095Y-45854819D02*
X70738095Y-46664342D01*
X70738095Y-46664342D02*
X70785714Y-46759580D01*
X70785714Y-46759580D02*
X70833333Y-46807200D01*
X70833333Y-46807200D02*
X70928571Y-46854819D01*
X70928571Y-46854819D02*
X71119047Y-46854819D01*
X71119047Y-46854819D02*
X71214285Y-46807200D01*
X71214285Y-46807200D02*
X71261904Y-46759580D01*
X71261904Y-46759580D02*
X71309523Y-46664342D01*
X71309523Y-46664342D02*
X71309523Y-45854819D01*
X72214285Y-46188152D02*
X72214285Y-46854819D01*
X71976190Y-45807200D02*
X71738095Y-46521485D01*
X71738095Y-46521485D02*
X72357142Y-46521485D01*
X60157142Y-37979580D02*
X60109523Y-38027200D01*
X60109523Y-38027200D02*
X59966666Y-38074819D01*
X59966666Y-38074819D02*
X59871428Y-38074819D01*
X59871428Y-38074819D02*
X59728571Y-38027200D01*
X59728571Y-38027200D02*
X59633333Y-37931961D01*
X59633333Y-37931961D02*
X59585714Y-37836723D01*
X59585714Y-37836723D02*
X59538095Y-37646247D01*
X59538095Y-37646247D02*
X59538095Y-37503390D01*
X59538095Y-37503390D02*
X59585714Y-37312914D01*
X59585714Y-37312914D02*
X59633333Y-37217676D01*
X59633333Y-37217676D02*
X59728571Y-37122438D01*
X59728571Y-37122438D02*
X59871428Y-37074819D01*
X59871428Y-37074819D02*
X59966666Y-37074819D01*
X59966666Y-37074819D02*
X60109523Y-37122438D01*
X60109523Y-37122438D02*
X60157142Y-37170057D01*
X61109523Y-38074819D02*
X60538095Y-38074819D01*
X60823809Y-38074819D02*
X60823809Y-37074819D01*
X60823809Y-37074819D02*
X60728571Y-37217676D01*
X60728571Y-37217676D02*
X60633333Y-37312914D01*
X60633333Y-37312914D02*
X60538095Y-37360533D01*
X61490476Y-37170057D02*
X61538095Y-37122438D01*
X61538095Y-37122438D02*
X61633333Y-37074819D01*
X61633333Y-37074819D02*
X61871428Y-37074819D01*
X61871428Y-37074819D02*
X61966666Y-37122438D01*
X61966666Y-37122438D02*
X62014285Y-37170057D01*
X62014285Y-37170057D02*
X62061904Y-37265295D01*
X62061904Y-37265295D02*
X62061904Y-37360533D01*
X62061904Y-37360533D02*
X62014285Y-37503390D01*
X62014285Y-37503390D02*
X61442857Y-38074819D01*
X61442857Y-38074819D02*
X62061904Y-38074819D01*
X107033333Y-15809580D02*
X106985714Y-15857200D01*
X106985714Y-15857200D02*
X106842857Y-15904819D01*
X106842857Y-15904819D02*
X106747619Y-15904819D01*
X106747619Y-15904819D02*
X106604762Y-15857200D01*
X106604762Y-15857200D02*
X106509524Y-15761961D01*
X106509524Y-15761961D02*
X106461905Y-15666723D01*
X106461905Y-15666723D02*
X106414286Y-15476247D01*
X106414286Y-15476247D02*
X106414286Y-15333390D01*
X106414286Y-15333390D02*
X106461905Y-15142914D01*
X106461905Y-15142914D02*
X106509524Y-15047676D01*
X106509524Y-15047676D02*
X106604762Y-14952438D01*
X106604762Y-14952438D02*
X106747619Y-14904819D01*
X106747619Y-14904819D02*
X106842857Y-14904819D01*
X106842857Y-14904819D02*
X106985714Y-14952438D01*
X106985714Y-14952438D02*
X107033333Y-15000057D01*
X107414286Y-15000057D02*
X107461905Y-14952438D01*
X107461905Y-14952438D02*
X107557143Y-14904819D01*
X107557143Y-14904819D02*
X107795238Y-14904819D01*
X107795238Y-14904819D02*
X107890476Y-14952438D01*
X107890476Y-14952438D02*
X107938095Y-15000057D01*
X107938095Y-15000057D02*
X107985714Y-15095295D01*
X107985714Y-15095295D02*
X107985714Y-15190533D01*
X107985714Y-15190533D02*
X107938095Y-15333390D01*
X107938095Y-15333390D02*
X107366667Y-15904819D01*
X107366667Y-15904819D02*
X107985714Y-15904819D01*
X55857142Y-34504819D02*
X55523809Y-34028628D01*
X55285714Y-34504819D02*
X55285714Y-33504819D01*
X55285714Y-33504819D02*
X55666666Y-33504819D01*
X55666666Y-33504819D02*
X55761904Y-33552438D01*
X55761904Y-33552438D02*
X55809523Y-33600057D01*
X55809523Y-33600057D02*
X55857142Y-33695295D01*
X55857142Y-33695295D02*
X55857142Y-33838152D01*
X55857142Y-33838152D02*
X55809523Y-33933390D01*
X55809523Y-33933390D02*
X55761904Y-33981009D01*
X55761904Y-33981009D02*
X55666666Y-34028628D01*
X55666666Y-34028628D02*
X55285714Y-34028628D01*
X56809523Y-34504819D02*
X56238095Y-34504819D01*
X56523809Y-34504819D02*
X56523809Y-33504819D01*
X56523809Y-33504819D02*
X56428571Y-33647676D01*
X56428571Y-33647676D02*
X56333333Y-33742914D01*
X56333333Y-33742914D02*
X56238095Y-33790533D01*
X57428571Y-33504819D02*
X57523809Y-33504819D01*
X57523809Y-33504819D02*
X57619047Y-33552438D01*
X57619047Y-33552438D02*
X57666666Y-33600057D01*
X57666666Y-33600057D02*
X57714285Y-33695295D01*
X57714285Y-33695295D02*
X57761904Y-33885771D01*
X57761904Y-33885771D02*
X57761904Y-34123866D01*
X57761904Y-34123866D02*
X57714285Y-34314342D01*
X57714285Y-34314342D02*
X57666666Y-34409580D01*
X57666666Y-34409580D02*
X57619047Y-34457200D01*
X57619047Y-34457200D02*
X57523809Y-34504819D01*
X57523809Y-34504819D02*
X57428571Y-34504819D01*
X57428571Y-34504819D02*
X57333333Y-34457200D01*
X57333333Y-34457200D02*
X57285714Y-34409580D01*
X57285714Y-34409580D02*
X57238095Y-34314342D01*
X57238095Y-34314342D02*
X57190476Y-34123866D01*
X57190476Y-34123866D02*
X57190476Y-33885771D01*
X57190476Y-33885771D02*
X57238095Y-33695295D01*
X57238095Y-33695295D02*
X57285714Y-33600057D01*
X57285714Y-33600057D02*
X57333333Y-33552438D01*
X57333333Y-33552438D02*
X57428571Y-33504819D01*
X100313333Y-55929580D02*
X100265714Y-55977200D01*
X100265714Y-55977200D02*
X100122857Y-56024819D01*
X100122857Y-56024819D02*
X100027619Y-56024819D01*
X100027619Y-56024819D02*
X99884762Y-55977200D01*
X99884762Y-55977200D02*
X99789524Y-55881961D01*
X99789524Y-55881961D02*
X99741905Y-55786723D01*
X99741905Y-55786723D02*
X99694286Y-55596247D01*
X99694286Y-55596247D02*
X99694286Y-55453390D01*
X99694286Y-55453390D02*
X99741905Y-55262914D01*
X99741905Y-55262914D02*
X99789524Y-55167676D01*
X99789524Y-55167676D02*
X99884762Y-55072438D01*
X99884762Y-55072438D02*
X100027619Y-55024819D01*
X100027619Y-55024819D02*
X100122857Y-55024819D01*
X100122857Y-55024819D02*
X100265714Y-55072438D01*
X100265714Y-55072438D02*
X100313333Y-55120057D01*
X101170476Y-55358152D02*
X101170476Y-56024819D01*
X100932381Y-54977200D02*
X100694286Y-55691485D01*
X100694286Y-55691485D02*
X101313333Y-55691485D01*
X100313333Y-52919580D02*
X100265714Y-52967200D01*
X100265714Y-52967200D02*
X100122857Y-53014819D01*
X100122857Y-53014819D02*
X100027619Y-53014819D01*
X100027619Y-53014819D02*
X99884762Y-52967200D01*
X99884762Y-52967200D02*
X99789524Y-52871961D01*
X99789524Y-52871961D02*
X99741905Y-52776723D01*
X99741905Y-52776723D02*
X99694286Y-52586247D01*
X99694286Y-52586247D02*
X99694286Y-52443390D01*
X99694286Y-52443390D02*
X99741905Y-52252914D01*
X99741905Y-52252914D02*
X99789524Y-52157676D01*
X99789524Y-52157676D02*
X99884762Y-52062438D01*
X99884762Y-52062438D02*
X100027619Y-52014819D01*
X100027619Y-52014819D02*
X100122857Y-52014819D01*
X100122857Y-52014819D02*
X100265714Y-52062438D01*
X100265714Y-52062438D02*
X100313333Y-52110057D01*
X100646667Y-52014819D02*
X101265714Y-52014819D01*
X101265714Y-52014819D02*
X100932381Y-52395771D01*
X100932381Y-52395771D02*
X101075238Y-52395771D01*
X101075238Y-52395771D02*
X101170476Y-52443390D01*
X101170476Y-52443390D02*
X101218095Y-52491009D01*
X101218095Y-52491009D02*
X101265714Y-52586247D01*
X101265714Y-52586247D02*
X101265714Y-52824342D01*
X101265714Y-52824342D02*
X101218095Y-52919580D01*
X101218095Y-52919580D02*
X101170476Y-52967200D01*
X101170476Y-52967200D02*
X101075238Y-53014819D01*
X101075238Y-53014819D02*
X100789524Y-53014819D01*
X100789524Y-53014819D02*
X100694286Y-52967200D01*
X100694286Y-52967200D02*
X100646667Y-52919580D01*
X46233333Y-15004819D02*
X45900000Y-14528628D01*
X45661905Y-15004819D02*
X45661905Y-14004819D01*
X45661905Y-14004819D02*
X46042857Y-14004819D01*
X46042857Y-14004819D02*
X46138095Y-14052438D01*
X46138095Y-14052438D02*
X46185714Y-14100057D01*
X46185714Y-14100057D02*
X46233333Y-14195295D01*
X46233333Y-14195295D02*
X46233333Y-14338152D01*
X46233333Y-14338152D02*
X46185714Y-14433390D01*
X46185714Y-14433390D02*
X46138095Y-14481009D01*
X46138095Y-14481009D02*
X46042857Y-14528628D01*
X46042857Y-14528628D02*
X45661905Y-14528628D01*
X46614286Y-14100057D02*
X46661905Y-14052438D01*
X46661905Y-14052438D02*
X46757143Y-14004819D01*
X46757143Y-14004819D02*
X46995238Y-14004819D01*
X46995238Y-14004819D02*
X47090476Y-14052438D01*
X47090476Y-14052438D02*
X47138095Y-14100057D01*
X47138095Y-14100057D02*
X47185714Y-14195295D01*
X47185714Y-14195295D02*
X47185714Y-14290533D01*
X47185714Y-14290533D02*
X47138095Y-14433390D01*
X47138095Y-14433390D02*
X46566667Y-15004819D01*
X46566667Y-15004819D02*
X47185714Y-15004819D01*
X50433333Y-11979580D02*
X50385714Y-12027200D01*
X50385714Y-12027200D02*
X50242857Y-12074819D01*
X50242857Y-12074819D02*
X50147619Y-12074819D01*
X50147619Y-12074819D02*
X50004762Y-12027200D01*
X50004762Y-12027200D02*
X49909524Y-11931961D01*
X49909524Y-11931961D02*
X49861905Y-11836723D01*
X49861905Y-11836723D02*
X49814286Y-11646247D01*
X49814286Y-11646247D02*
X49814286Y-11503390D01*
X49814286Y-11503390D02*
X49861905Y-11312914D01*
X49861905Y-11312914D02*
X49909524Y-11217676D01*
X49909524Y-11217676D02*
X50004762Y-11122438D01*
X50004762Y-11122438D02*
X50147619Y-11074819D01*
X50147619Y-11074819D02*
X50242857Y-11074819D01*
X50242857Y-11074819D02*
X50385714Y-11122438D01*
X50385714Y-11122438D02*
X50433333Y-11170057D01*
X50766667Y-11074819D02*
X51433333Y-11074819D01*
X51433333Y-11074819D02*
X51004762Y-12074819D01*
X80333333Y-53679580D02*
X80285714Y-53727200D01*
X80285714Y-53727200D02*
X80142857Y-53774819D01*
X80142857Y-53774819D02*
X80047619Y-53774819D01*
X80047619Y-53774819D02*
X79904762Y-53727200D01*
X79904762Y-53727200D02*
X79809524Y-53631961D01*
X79809524Y-53631961D02*
X79761905Y-53536723D01*
X79761905Y-53536723D02*
X79714286Y-53346247D01*
X79714286Y-53346247D02*
X79714286Y-53203390D01*
X79714286Y-53203390D02*
X79761905Y-53012914D01*
X79761905Y-53012914D02*
X79809524Y-52917676D01*
X79809524Y-52917676D02*
X79904762Y-52822438D01*
X79904762Y-52822438D02*
X80047619Y-52774819D01*
X80047619Y-52774819D02*
X80142857Y-52774819D01*
X80142857Y-52774819D02*
X80285714Y-52822438D01*
X80285714Y-52822438D02*
X80333333Y-52870057D01*
X80904762Y-53203390D02*
X80809524Y-53155771D01*
X80809524Y-53155771D02*
X80761905Y-53108152D01*
X80761905Y-53108152D02*
X80714286Y-53012914D01*
X80714286Y-53012914D02*
X80714286Y-52965295D01*
X80714286Y-52965295D02*
X80761905Y-52870057D01*
X80761905Y-52870057D02*
X80809524Y-52822438D01*
X80809524Y-52822438D02*
X80904762Y-52774819D01*
X80904762Y-52774819D02*
X81095238Y-52774819D01*
X81095238Y-52774819D02*
X81190476Y-52822438D01*
X81190476Y-52822438D02*
X81238095Y-52870057D01*
X81238095Y-52870057D02*
X81285714Y-52965295D01*
X81285714Y-52965295D02*
X81285714Y-53012914D01*
X81285714Y-53012914D02*
X81238095Y-53108152D01*
X81238095Y-53108152D02*
X81190476Y-53155771D01*
X81190476Y-53155771D02*
X81095238Y-53203390D01*
X81095238Y-53203390D02*
X80904762Y-53203390D01*
X80904762Y-53203390D02*
X80809524Y-53251009D01*
X80809524Y-53251009D02*
X80761905Y-53298628D01*
X80761905Y-53298628D02*
X80714286Y-53393866D01*
X80714286Y-53393866D02*
X80714286Y-53584342D01*
X80714286Y-53584342D02*
X80761905Y-53679580D01*
X80761905Y-53679580D02*
X80809524Y-53727200D01*
X80809524Y-53727200D02*
X80904762Y-53774819D01*
X80904762Y-53774819D02*
X81095238Y-53774819D01*
X81095238Y-53774819D02*
X81190476Y-53727200D01*
X81190476Y-53727200D02*
X81238095Y-53679580D01*
X81238095Y-53679580D02*
X81285714Y-53584342D01*
X81285714Y-53584342D02*
X81285714Y-53393866D01*
X81285714Y-53393866D02*
X81238095Y-53298628D01*
X81238095Y-53298628D02*
X81190476Y-53251009D01*
X81190476Y-53251009D02*
X81095238Y-53203390D01*
X85708333Y-55555849D02*
X85375000Y-55079658D01*
X85136905Y-55555849D02*
X85136905Y-54555849D01*
X85136905Y-54555849D02*
X85517857Y-54555849D01*
X85517857Y-54555849D02*
X85613095Y-54603468D01*
X85613095Y-54603468D02*
X85660714Y-54651087D01*
X85660714Y-54651087D02*
X85708333Y-54746325D01*
X85708333Y-54746325D02*
X85708333Y-54889182D01*
X85708333Y-54889182D02*
X85660714Y-54984420D01*
X85660714Y-54984420D02*
X85613095Y-55032039D01*
X85613095Y-55032039D02*
X85517857Y-55079658D01*
X85517857Y-55079658D02*
X85136905Y-55079658D01*
X86565476Y-54889182D02*
X86565476Y-55555849D01*
X86327381Y-54508230D02*
X86089286Y-55222515D01*
X86089286Y-55222515D02*
X86708333Y-55222515D01*
X93496905Y-52964819D02*
X93496905Y-51964819D01*
X93496905Y-51964819D02*
X93735000Y-51964819D01*
X93735000Y-51964819D02*
X93877857Y-52012438D01*
X93877857Y-52012438D02*
X93973095Y-52107676D01*
X93973095Y-52107676D02*
X94020714Y-52202914D01*
X94020714Y-52202914D02*
X94068333Y-52393390D01*
X94068333Y-52393390D02*
X94068333Y-52536247D01*
X94068333Y-52536247D02*
X94020714Y-52726723D01*
X94020714Y-52726723D02*
X93973095Y-52821961D01*
X93973095Y-52821961D02*
X93877857Y-52917200D01*
X93877857Y-52917200D02*
X93735000Y-52964819D01*
X93735000Y-52964819D02*
X93496905Y-52964819D01*
X95020714Y-52964819D02*
X94449286Y-52964819D01*
X94735000Y-52964819D02*
X94735000Y-51964819D01*
X94735000Y-51964819D02*
X94639762Y-52107676D01*
X94639762Y-52107676D02*
X94544524Y-52202914D01*
X94544524Y-52202914D02*
X94449286Y-52250533D01*
X51733333Y-34604819D02*
X51400000Y-34128628D01*
X51161905Y-34604819D02*
X51161905Y-33604819D01*
X51161905Y-33604819D02*
X51542857Y-33604819D01*
X51542857Y-33604819D02*
X51638095Y-33652438D01*
X51638095Y-33652438D02*
X51685714Y-33700057D01*
X51685714Y-33700057D02*
X51733333Y-33795295D01*
X51733333Y-33795295D02*
X51733333Y-33938152D01*
X51733333Y-33938152D02*
X51685714Y-34033390D01*
X51685714Y-34033390D02*
X51638095Y-34081009D01*
X51638095Y-34081009D02*
X51542857Y-34128628D01*
X51542857Y-34128628D02*
X51161905Y-34128628D01*
X52304762Y-34033390D02*
X52209524Y-33985771D01*
X52209524Y-33985771D02*
X52161905Y-33938152D01*
X52161905Y-33938152D02*
X52114286Y-33842914D01*
X52114286Y-33842914D02*
X52114286Y-33795295D01*
X52114286Y-33795295D02*
X52161905Y-33700057D01*
X52161905Y-33700057D02*
X52209524Y-33652438D01*
X52209524Y-33652438D02*
X52304762Y-33604819D01*
X52304762Y-33604819D02*
X52495238Y-33604819D01*
X52495238Y-33604819D02*
X52590476Y-33652438D01*
X52590476Y-33652438D02*
X52638095Y-33700057D01*
X52638095Y-33700057D02*
X52685714Y-33795295D01*
X52685714Y-33795295D02*
X52685714Y-33842914D01*
X52685714Y-33842914D02*
X52638095Y-33938152D01*
X52638095Y-33938152D02*
X52590476Y-33985771D01*
X52590476Y-33985771D02*
X52495238Y-34033390D01*
X52495238Y-34033390D02*
X52304762Y-34033390D01*
X52304762Y-34033390D02*
X52209524Y-34081009D01*
X52209524Y-34081009D02*
X52161905Y-34128628D01*
X52161905Y-34128628D02*
X52114286Y-34223866D01*
X52114286Y-34223866D02*
X52114286Y-34414342D01*
X52114286Y-34414342D02*
X52161905Y-34509580D01*
X52161905Y-34509580D02*
X52209524Y-34557200D01*
X52209524Y-34557200D02*
X52304762Y-34604819D01*
X52304762Y-34604819D02*
X52495238Y-34604819D01*
X52495238Y-34604819D02*
X52590476Y-34557200D01*
X52590476Y-34557200D02*
X52638095Y-34509580D01*
X52638095Y-34509580D02*
X52685714Y-34414342D01*
X52685714Y-34414342D02*
X52685714Y-34223866D01*
X52685714Y-34223866D02*
X52638095Y-34128628D01*
X52638095Y-34128628D02*
X52590476Y-34081009D01*
X52590476Y-34081009D02*
X52495238Y-34033390D01*
X68807142Y-37679580D02*
X68759523Y-37727200D01*
X68759523Y-37727200D02*
X68616666Y-37774819D01*
X68616666Y-37774819D02*
X68521428Y-37774819D01*
X68521428Y-37774819D02*
X68378571Y-37727200D01*
X68378571Y-37727200D02*
X68283333Y-37631961D01*
X68283333Y-37631961D02*
X68235714Y-37536723D01*
X68235714Y-37536723D02*
X68188095Y-37346247D01*
X68188095Y-37346247D02*
X68188095Y-37203390D01*
X68188095Y-37203390D02*
X68235714Y-37012914D01*
X68235714Y-37012914D02*
X68283333Y-36917676D01*
X68283333Y-36917676D02*
X68378571Y-36822438D01*
X68378571Y-36822438D02*
X68521428Y-36774819D01*
X68521428Y-36774819D02*
X68616666Y-36774819D01*
X68616666Y-36774819D02*
X68759523Y-36822438D01*
X68759523Y-36822438D02*
X68807142Y-36870057D01*
X69759523Y-37774819D02*
X69188095Y-37774819D01*
X69473809Y-37774819D02*
X69473809Y-36774819D01*
X69473809Y-36774819D02*
X69378571Y-36917676D01*
X69378571Y-36917676D02*
X69283333Y-37012914D01*
X69283333Y-37012914D02*
X69188095Y-37060533D01*
X70616666Y-37108152D02*
X70616666Y-37774819D01*
X70378571Y-36727200D02*
X70140476Y-37441485D01*
X70140476Y-37441485D02*
X70759523Y-37441485D01*
X86949285Y-47561009D02*
X87092142Y-47608628D01*
X87092142Y-47608628D02*
X87139761Y-47656247D01*
X87139761Y-47656247D02*
X87187380Y-47751485D01*
X87187380Y-47751485D02*
X87187380Y-47894342D01*
X87187380Y-47894342D02*
X87139761Y-47989580D01*
X87139761Y-47989580D02*
X87092142Y-48037200D01*
X87092142Y-48037200D02*
X86996904Y-48084819D01*
X86996904Y-48084819D02*
X86615952Y-48084819D01*
X86615952Y-48084819D02*
X86615952Y-47084819D01*
X86615952Y-47084819D02*
X86949285Y-47084819D01*
X86949285Y-47084819D02*
X87044523Y-47132438D01*
X87044523Y-47132438D02*
X87092142Y-47180057D01*
X87092142Y-47180057D02*
X87139761Y-47275295D01*
X87139761Y-47275295D02*
X87139761Y-47370533D01*
X87139761Y-47370533D02*
X87092142Y-47465771D01*
X87092142Y-47465771D02*
X87044523Y-47513390D01*
X87044523Y-47513390D02*
X86949285Y-47561009D01*
X86949285Y-47561009D02*
X86615952Y-47561009D01*
X87473095Y-47084819D02*
X88044523Y-47084819D01*
X87758809Y-48084819D02*
X87758809Y-47084819D01*
X88901666Y-48084819D02*
X88330238Y-48084819D01*
X88615952Y-48084819D02*
X88615952Y-47084819D01*
X88615952Y-47084819D02*
X88520714Y-47227676D01*
X88520714Y-47227676D02*
X88425476Y-47322914D01*
X88425476Y-47322914D02*
X88330238Y-47370533D01*
X60491666Y-22584819D02*
X60491666Y-23299104D01*
X60491666Y-23299104D02*
X60444047Y-23441961D01*
X60444047Y-23441961D02*
X60348809Y-23537200D01*
X60348809Y-23537200D02*
X60205952Y-23584819D01*
X60205952Y-23584819D02*
X60110714Y-23584819D01*
X61444047Y-22584819D02*
X60967857Y-22584819D01*
X60967857Y-22584819D02*
X60920238Y-23061009D01*
X60920238Y-23061009D02*
X60967857Y-23013390D01*
X60967857Y-23013390D02*
X61063095Y-22965771D01*
X61063095Y-22965771D02*
X61301190Y-22965771D01*
X61301190Y-22965771D02*
X61396428Y-23013390D01*
X61396428Y-23013390D02*
X61444047Y-23061009D01*
X61444047Y-23061009D02*
X61491666Y-23156247D01*
X61491666Y-23156247D02*
X61491666Y-23394342D01*
X61491666Y-23394342D02*
X61444047Y-23489580D01*
X61444047Y-23489580D02*
X61396428Y-23537200D01*
X61396428Y-23537200D02*
X61301190Y-23584819D01*
X61301190Y-23584819D02*
X61063095Y-23584819D01*
X61063095Y-23584819D02*
X60967857Y-23537200D01*
X60967857Y-23537200D02*
X60920238Y-23489580D01*
X69671666Y-22584819D02*
X69671666Y-23299104D01*
X69671666Y-23299104D02*
X69624047Y-23441961D01*
X69624047Y-23441961D02*
X69528809Y-23537200D01*
X69528809Y-23537200D02*
X69385952Y-23584819D01*
X69385952Y-23584819D02*
X69290714Y-23584819D01*
X70052619Y-22584819D02*
X70719285Y-22584819D01*
X70719285Y-22584819D02*
X70290714Y-23584819D01*
X46721666Y-22584819D02*
X46721666Y-23299104D01*
X46721666Y-23299104D02*
X46674047Y-23441961D01*
X46674047Y-23441961D02*
X46578809Y-23537200D01*
X46578809Y-23537200D02*
X46435952Y-23584819D01*
X46435952Y-23584819D02*
X46340714Y-23584819D01*
X47150238Y-22680057D02*
X47197857Y-22632438D01*
X47197857Y-22632438D02*
X47293095Y-22584819D01*
X47293095Y-22584819D02*
X47531190Y-22584819D01*
X47531190Y-22584819D02*
X47626428Y-22632438D01*
X47626428Y-22632438D02*
X47674047Y-22680057D01*
X47674047Y-22680057D02*
X47721666Y-22775295D01*
X47721666Y-22775295D02*
X47721666Y-22870533D01*
X47721666Y-22870533D02*
X47674047Y-23013390D01*
X47674047Y-23013390D02*
X47102619Y-23584819D01*
X47102619Y-23584819D02*
X47721666Y-23584819D01*
X65081666Y-22584819D02*
X65081666Y-23299104D01*
X65081666Y-23299104D02*
X65034047Y-23441961D01*
X65034047Y-23441961D02*
X64938809Y-23537200D01*
X64938809Y-23537200D02*
X64795952Y-23584819D01*
X64795952Y-23584819D02*
X64700714Y-23584819D01*
X65986428Y-22584819D02*
X65795952Y-22584819D01*
X65795952Y-22584819D02*
X65700714Y-22632438D01*
X65700714Y-22632438D02*
X65653095Y-22680057D01*
X65653095Y-22680057D02*
X65557857Y-22822914D01*
X65557857Y-22822914D02*
X65510238Y-23013390D01*
X65510238Y-23013390D02*
X65510238Y-23394342D01*
X65510238Y-23394342D02*
X65557857Y-23489580D01*
X65557857Y-23489580D02*
X65605476Y-23537200D01*
X65605476Y-23537200D02*
X65700714Y-23584819D01*
X65700714Y-23584819D02*
X65891190Y-23584819D01*
X65891190Y-23584819D02*
X65986428Y-23537200D01*
X65986428Y-23537200D02*
X66034047Y-23489580D01*
X66034047Y-23489580D02*
X66081666Y-23394342D01*
X66081666Y-23394342D02*
X66081666Y-23156247D01*
X66081666Y-23156247D02*
X66034047Y-23061009D01*
X66034047Y-23061009D02*
X65986428Y-23013390D01*
X65986428Y-23013390D02*
X65891190Y-22965771D01*
X65891190Y-22965771D02*
X65700714Y-22965771D01*
X65700714Y-22965771D02*
X65605476Y-23013390D01*
X65605476Y-23013390D02*
X65557857Y-23061009D01*
X65557857Y-23061009D02*
X65510238Y-23156247D01*
X55901666Y-22584819D02*
X55901666Y-23299104D01*
X55901666Y-23299104D02*
X55854047Y-23441961D01*
X55854047Y-23441961D02*
X55758809Y-23537200D01*
X55758809Y-23537200D02*
X55615952Y-23584819D01*
X55615952Y-23584819D02*
X55520714Y-23584819D01*
X56806428Y-22918152D02*
X56806428Y-23584819D01*
X56568333Y-22537200D02*
X56330238Y-23251485D01*
X56330238Y-23251485D02*
X56949285Y-23251485D01*
X51311666Y-22584819D02*
X51311666Y-23299104D01*
X51311666Y-23299104D02*
X51264047Y-23441961D01*
X51264047Y-23441961D02*
X51168809Y-23537200D01*
X51168809Y-23537200D02*
X51025952Y-23584819D01*
X51025952Y-23584819D02*
X50930714Y-23584819D01*
X51692619Y-22584819D02*
X52311666Y-22584819D01*
X52311666Y-22584819D02*
X51978333Y-22965771D01*
X51978333Y-22965771D02*
X52121190Y-22965771D01*
X52121190Y-22965771D02*
X52216428Y-23013390D01*
X52216428Y-23013390D02*
X52264047Y-23061009D01*
X52264047Y-23061009D02*
X52311666Y-23156247D01*
X52311666Y-23156247D02*
X52311666Y-23394342D01*
X52311666Y-23394342D02*
X52264047Y-23489580D01*
X52264047Y-23489580D02*
X52216428Y-23537200D01*
X52216428Y-23537200D02*
X52121190Y-23584819D01*
X52121190Y-23584819D02*
X51835476Y-23584819D01*
X51835476Y-23584819D02*
X51740238Y-23537200D01*
X51740238Y-23537200D02*
X51692619Y-23489580D01*
X46933333Y-30904819D02*
X46600000Y-30428628D01*
X46361905Y-30904819D02*
X46361905Y-29904819D01*
X46361905Y-29904819D02*
X46742857Y-29904819D01*
X46742857Y-29904819D02*
X46838095Y-29952438D01*
X46838095Y-29952438D02*
X46885714Y-30000057D01*
X46885714Y-30000057D02*
X46933333Y-30095295D01*
X46933333Y-30095295D02*
X46933333Y-30238152D01*
X46933333Y-30238152D02*
X46885714Y-30333390D01*
X46885714Y-30333390D02*
X46838095Y-30381009D01*
X46838095Y-30381009D02*
X46742857Y-30428628D01*
X46742857Y-30428628D02*
X46361905Y-30428628D01*
X47838095Y-29904819D02*
X47361905Y-29904819D01*
X47361905Y-29904819D02*
X47314286Y-30381009D01*
X47314286Y-30381009D02*
X47361905Y-30333390D01*
X47361905Y-30333390D02*
X47457143Y-30285771D01*
X47457143Y-30285771D02*
X47695238Y-30285771D01*
X47695238Y-30285771D02*
X47790476Y-30333390D01*
X47790476Y-30333390D02*
X47838095Y-30381009D01*
X47838095Y-30381009D02*
X47885714Y-30476247D01*
X47885714Y-30476247D02*
X47885714Y-30714342D01*
X47885714Y-30714342D02*
X47838095Y-30809580D01*
X47838095Y-30809580D02*
X47790476Y-30857200D01*
X47790476Y-30857200D02*
X47695238Y-30904819D01*
X47695238Y-30904819D02*
X47457143Y-30904819D01*
X47457143Y-30904819D02*
X47361905Y-30857200D01*
X47361905Y-30857200D02*
X47314286Y-30809580D01*
X81623095Y-58764819D02*
X81623095Y-59574342D01*
X81623095Y-59574342D02*
X81670714Y-59669580D01*
X81670714Y-59669580D02*
X81718333Y-59717200D01*
X81718333Y-59717200D02*
X81813571Y-59764819D01*
X81813571Y-59764819D02*
X82004047Y-59764819D01*
X82004047Y-59764819D02*
X82099285Y-59717200D01*
X82099285Y-59717200D02*
X82146904Y-59669580D01*
X82146904Y-59669580D02*
X82194523Y-59574342D01*
X82194523Y-59574342D02*
X82194523Y-58764819D01*
X82623095Y-58860057D02*
X82670714Y-58812438D01*
X82670714Y-58812438D02*
X82765952Y-58764819D01*
X82765952Y-58764819D02*
X83004047Y-58764819D01*
X83004047Y-58764819D02*
X83099285Y-58812438D01*
X83099285Y-58812438D02*
X83146904Y-58860057D01*
X83146904Y-58860057D02*
X83194523Y-58955295D01*
X83194523Y-58955295D02*
X83194523Y-59050533D01*
X83194523Y-59050533D02*
X83146904Y-59193390D01*
X83146904Y-59193390D02*
X82575476Y-59764819D01*
X82575476Y-59764819D02*
X83194523Y-59764819D01*
X108033333Y-2054819D02*
X107557143Y-2054819D01*
X107557143Y-2054819D02*
X107557143Y-1054819D01*
X108890476Y-2054819D02*
X108319048Y-2054819D01*
X108604762Y-2054819D02*
X108604762Y-1054819D01*
X108604762Y-1054819D02*
X108509524Y-1197676D01*
X108509524Y-1197676D02*
X108414286Y-1292914D01*
X108414286Y-1292914D02*
X108319048Y-1340533D01*
X47033333Y-34604819D02*
X46700000Y-34128628D01*
X46461905Y-34604819D02*
X46461905Y-33604819D01*
X46461905Y-33604819D02*
X46842857Y-33604819D01*
X46842857Y-33604819D02*
X46938095Y-33652438D01*
X46938095Y-33652438D02*
X46985714Y-33700057D01*
X46985714Y-33700057D02*
X47033333Y-33795295D01*
X47033333Y-33795295D02*
X47033333Y-33938152D01*
X47033333Y-33938152D02*
X46985714Y-34033390D01*
X46985714Y-34033390D02*
X46938095Y-34081009D01*
X46938095Y-34081009D02*
X46842857Y-34128628D01*
X46842857Y-34128628D02*
X46461905Y-34128628D01*
X47890476Y-33604819D02*
X47700000Y-33604819D01*
X47700000Y-33604819D02*
X47604762Y-33652438D01*
X47604762Y-33652438D02*
X47557143Y-33700057D01*
X47557143Y-33700057D02*
X47461905Y-33842914D01*
X47461905Y-33842914D02*
X47414286Y-34033390D01*
X47414286Y-34033390D02*
X47414286Y-34414342D01*
X47414286Y-34414342D02*
X47461905Y-34509580D01*
X47461905Y-34509580D02*
X47509524Y-34557200D01*
X47509524Y-34557200D02*
X47604762Y-34604819D01*
X47604762Y-34604819D02*
X47795238Y-34604819D01*
X47795238Y-34604819D02*
X47890476Y-34557200D01*
X47890476Y-34557200D02*
X47938095Y-34509580D01*
X47938095Y-34509580D02*
X47985714Y-34414342D01*
X47985714Y-34414342D02*
X47985714Y-34176247D01*
X47985714Y-34176247D02*
X47938095Y-34081009D01*
X47938095Y-34081009D02*
X47890476Y-34033390D01*
X47890476Y-34033390D02*
X47795238Y-33985771D01*
X47795238Y-33985771D02*
X47604762Y-33985771D01*
X47604762Y-33985771D02*
X47509524Y-34033390D01*
X47509524Y-34033390D02*
X47461905Y-34081009D01*
X47461905Y-34081009D02*
X47414286Y-34176247D01*
X46233333Y-12054819D02*
X45900000Y-11578628D01*
X45661905Y-12054819D02*
X45661905Y-11054819D01*
X45661905Y-11054819D02*
X46042857Y-11054819D01*
X46042857Y-11054819D02*
X46138095Y-11102438D01*
X46138095Y-11102438D02*
X46185714Y-11150057D01*
X46185714Y-11150057D02*
X46233333Y-11245295D01*
X46233333Y-11245295D02*
X46233333Y-11388152D01*
X46233333Y-11388152D02*
X46185714Y-11483390D01*
X46185714Y-11483390D02*
X46138095Y-11531009D01*
X46138095Y-11531009D02*
X46042857Y-11578628D01*
X46042857Y-11578628D02*
X45661905Y-11578628D01*
X47185714Y-12054819D02*
X46614286Y-12054819D01*
X46900000Y-12054819D02*
X46900000Y-11054819D01*
X46900000Y-11054819D02*
X46804762Y-11197676D01*
X46804762Y-11197676D02*
X46709524Y-11292914D01*
X46709524Y-11292914D02*
X46614286Y-11340533D01*
D11*
%TO.C,U3*%
X78785000Y25000D02*
X78285000Y25000D01*
X78785000Y525000D01*
X78785000Y25000D01*
G36*
X78785000Y25000D02*
G01*
X78285000Y25000D01*
X78785000Y525000D01*
X78785000Y25000D01*
G37*
X97185000Y-18950000D02*
X97185000Y-17950000D01*
X97185000Y-18950000D02*
X95685000Y-18950000D01*
X97185000Y6900000D02*
X97185000Y700000D01*
X78785000Y-18950000D02*
X80285000Y-18950000D01*
X78785000Y-17950000D02*
X78785000Y-18950000D01*
X78785000Y6900000D02*
X97185000Y6900000D01*
X78785000Y6900000D02*
X78785000Y700000D01*
%TO.C,R15*%
X69872936Y-32835000D02*
X70327064Y-32835000D01*
X69872936Y-31365000D02*
X70327064Y-31365000D01*
%TO.C,U1*%
X121215000Y-4200000D02*
X121215000Y-5150000D01*
X121215000Y-14600000D02*
X121215000Y-13650000D01*
X122580000Y-4200000D02*
X121215000Y-4200000D01*
X122580000Y-14600000D02*
X121215000Y-14600000D01*
X118390000Y-5190000D02*
X118050000Y-4720000D01*
X118730000Y-4720000D01*
X118390000Y-5190000D01*
G36*
X118390000Y-5190000D02*
G01*
X118050000Y-4720000D01*
X118730000Y-4720000D01*
X118390000Y-5190000D01*
G37*
%TO.C,C1*%
X119220354Y-18325000D02*
X120220354Y-18325000D01*
X119720354Y-17825000D02*
X119720354Y-18825000D01*
X124700000Y-16120000D02*
X124700000Y-26280000D01*
X124740000Y-16120000D02*
X124740000Y-26280000D01*
X124780000Y-16121000D02*
X124780000Y-26279000D01*
X124820000Y-16121000D02*
X124820000Y-26279000D01*
X124860000Y-16123000D02*
X124860000Y-26277000D01*
X124900000Y-16124000D02*
X124900000Y-26276000D01*
X124940000Y-16126000D02*
X124940000Y-26274000D01*
X124980000Y-16128000D02*
X124980000Y-26272000D01*
X125020000Y-16130000D02*
X125020000Y-26270000D01*
X125060000Y-16133000D02*
X125060000Y-26267000D01*
X125100000Y-16136000D02*
X125100000Y-26264000D01*
X125140000Y-16139000D02*
X125140000Y-26261000D01*
X125180000Y-16143000D02*
X125180000Y-26257000D01*
X125220000Y-16146000D02*
X125220000Y-26254000D01*
X125260000Y-16151000D02*
X125260000Y-26249000D01*
X125300000Y-16155000D02*
X125300000Y-26245000D01*
X125340000Y-16160000D02*
X125340000Y-26240000D01*
X125380000Y-16165000D02*
X125380000Y-26235000D01*
X125420000Y-16171000D02*
X125420000Y-26229000D01*
X125460000Y-16177000D02*
X125460000Y-26223000D01*
X125500000Y-16183000D02*
X125500000Y-26217000D01*
X125540000Y-16189000D02*
X125540000Y-26211000D01*
X125580000Y-16196000D02*
X125580000Y-26204000D01*
X125620000Y-16203000D02*
X125620000Y-26197000D01*
X125660000Y-16211000D02*
X125660000Y-26189000D01*
X125700000Y-16219000D02*
X125700000Y-26181000D01*
X125740000Y-16227000D02*
X125740000Y-26173000D01*
X125780000Y-16235000D02*
X125780000Y-26165000D01*
X125820000Y-16244000D02*
X125820000Y-26156000D01*
X125860000Y-16253000D02*
X125860000Y-26147000D01*
X125900000Y-16263000D02*
X125900000Y-26137000D01*
X125940000Y-16272000D02*
X125940000Y-26128000D01*
X125980000Y-16283000D02*
X125980000Y-19960000D01*
X125980000Y-22440000D02*
X125980000Y-26117000D01*
X126020000Y-16293000D02*
X126020000Y-19960000D01*
X126020000Y-22440000D02*
X126020000Y-26107000D01*
X126060000Y-16304000D02*
X126060000Y-19960000D01*
X126060000Y-22440000D02*
X126060000Y-26096000D01*
X126100000Y-16315000D02*
X126100000Y-19960000D01*
X126100000Y-22440000D02*
X126100000Y-26085000D01*
X126140000Y-16327000D02*
X126140000Y-19960000D01*
X126140000Y-22440000D02*
X126140000Y-26073000D01*
X126180000Y-16339000D02*
X126180000Y-19960000D01*
X126180000Y-22440000D02*
X126180000Y-26061000D01*
X126220000Y-16351000D02*
X126220000Y-19960000D01*
X126220000Y-22440000D02*
X126220000Y-26049000D01*
X126260000Y-16363000D02*
X126260000Y-19960000D01*
X126260000Y-22440000D02*
X126260000Y-26037000D01*
X126300000Y-16376000D02*
X126300000Y-19960000D01*
X126300000Y-22440000D02*
X126300000Y-26024000D01*
X126340000Y-16390000D02*
X126340000Y-19960000D01*
X126340000Y-22440000D02*
X126340000Y-26010000D01*
X126380000Y-16403000D02*
X126380000Y-19960000D01*
X126380000Y-22440000D02*
X126380000Y-25997000D01*
X126420000Y-16418000D02*
X126420000Y-19960000D01*
X126420000Y-22440000D02*
X126420000Y-25982000D01*
X126460000Y-16432000D02*
X126460000Y-19960000D01*
X126460000Y-22440000D02*
X126460000Y-25968000D01*
X126500000Y-16447000D02*
X126500000Y-19960000D01*
X126500000Y-22440000D02*
X126500000Y-25953000D01*
X126540000Y-16462000D02*
X126540000Y-19960000D01*
X126540000Y-22440000D02*
X126540000Y-25938000D01*
X126580000Y-16478000D02*
X126580000Y-19960000D01*
X126580000Y-22440000D02*
X126580000Y-25922000D01*
X126620000Y-16494000D02*
X126620000Y-19960000D01*
X126620000Y-22440000D02*
X126620000Y-25906000D01*
X126660000Y-16510000D02*
X126660000Y-19960000D01*
X126660000Y-22440000D02*
X126660000Y-25890000D01*
X126700000Y-16527000D02*
X126700000Y-19960000D01*
X126700000Y-22440000D02*
X126700000Y-25873000D01*
X126740000Y-16544000D02*
X126740000Y-19960000D01*
X126740000Y-22440000D02*
X126740000Y-25856000D01*
X126780000Y-16562000D02*
X126780000Y-19960000D01*
X126780000Y-22440000D02*
X126780000Y-25838000D01*
X126820000Y-16580000D02*
X126820000Y-19960000D01*
X126820000Y-22440000D02*
X126820000Y-25820000D01*
X126860000Y-16598000D02*
X126860000Y-19960000D01*
X126860000Y-22440000D02*
X126860000Y-25802000D01*
X126900000Y-16617000D02*
X126900000Y-19960000D01*
X126900000Y-22440000D02*
X126900000Y-25783000D01*
X126940000Y-16636000D02*
X126940000Y-19960000D01*
X126940000Y-22440000D02*
X126940000Y-25764000D01*
X126980000Y-16656000D02*
X126980000Y-19960000D01*
X126980000Y-22440000D02*
X126980000Y-25744000D01*
X127020000Y-16676000D02*
X127020000Y-19960000D01*
X127020000Y-22440000D02*
X127020000Y-25724000D01*
X127060000Y-16696000D02*
X127060000Y-19960000D01*
X127060000Y-22440000D02*
X127060000Y-25704000D01*
X127100000Y-16717000D02*
X127100000Y-19960000D01*
X127100000Y-22440000D02*
X127100000Y-25683000D01*
X127140000Y-16739000D02*
X127140000Y-19960000D01*
X127140000Y-22440000D02*
X127140000Y-25661000D01*
X127180000Y-16761000D02*
X127180000Y-19960000D01*
X127180000Y-22440000D02*
X127180000Y-25639000D01*
X127220000Y-16783000D02*
X127220000Y-19960000D01*
X127220000Y-22440000D02*
X127220000Y-25617000D01*
X127260000Y-16806000D02*
X127260000Y-19960000D01*
X127260000Y-22440000D02*
X127260000Y-25594000D01*
X127300000Y-16829000D02*
X127300000Y-19960000D01*
X127300000Y-22440000D02*
X127300000Y-25571000D01*
X127340000Y-16853000D02*
X127340000Y-19960000D01*
X127340000Y-22440000D02*
X127340000Y-25547000D01*
X127380000Y-16877000D02*
X127380000Y-19960000D01*
X127380000Y-22440000D02*
X127380000Y-25523000D01*
X127420000Y-16902000D02*
X127420000Y-19960000D01*
X127420000Y-22440000D02*
X127420000Y-25498000D01*
X127460000Y-16928000D02*
X127460000Y-19960000D01*
X127460000Y-22440000D02*
X127460000Y-25472000D01*
X127500000Y-16953000D02*
X127500000Y-19960000D01*
X127500000Y-22440000D02*
X127500000Y-25447000D01*
X127540000Y-16980000D02*
X127540000Y-19960000D01*
X127540000Y-22440000D02*
X127540000Y-25420000D01*
X127580000Y-17007000D02*
X127580000Y-19960000D01*
X127580000Y-22440000D02*
X127580000Y-25393000D01*
X127620000Y-17034000D02*
X127620000Y-19960000D01*
X127620000Y-22440000D02*
X127620000Y-25366000D01*
X127660000Y-17062000D02*
X127660000Y-19960000D01*
X127660000Y-22440000D02*
X127660000Y-25338000D01*
X127700000Y-17091000D02*
X127700000Y-19960000D01*
X127700000Y-22440000D02*
X127700000Y-25309000D01*
X127740000Y-17120000D02*
X127740000Y-19960000D01*
X127740000Y-22440000D02*
X127740000Y-25280000D01*
X127780000Y-17150000D02*
X127780000Y-19960000D01*
X127780000Y-22440000D02*
X127780000Y-25250000D01*
X127820000Y-17180000D02*
X127820000Y-19960000D01*
X127820000Y-22440000D02*
X127820000Y-25220000D01*
X127860000Y-17212000D02*
X127860000Y-19960000D01*
X127860000Y-22440000D02*
X127860000Y-25188000D01*
X127900000Y-17243000D02*
X127900000Y-19960000D01*
X127900000Y-22440000D02*
X127900000Y-25157000D01*
X127940000Y-17276000D02*
X127940000Y-19960000D01*
X127940000Y-22440000D02*
X127940000Y-25124000D01*
X127980000Y-17309000D02*
X127980000Y-19960000D01*
X127980000Y-22440000D02*
X127980000Y-25091000D01*
X128020000Y-17342000D02*
X128020000Y-19960000D01*
X128020000Y-22440000D02*
X128020000Y-25058000D01*
X128060000Y-17377000D02*
X128060000Y-19960000D01*
X128060000Y-22440000D02*
X128060000Y-25023000D01*
X128100000Y-17412000D02*
X128100000Y-19960000D01*
X128100000Y-22440000D02*
X128100000Y-24988000D01*
X128140000Y-17448000D02*
X128140000Y-19960000D01*
X128140000Y-22440000D02*
X128140000Y-24952000D01*
X128180000Y-17484000D02*
X128180000Y-19960000D01*
X128180000Y-22440000D02*
X128180000Y-24916000D01*
X128220000Y-17522000D02*
X128220000Y-19960000D01*
X128220000Y-22440000D02*
X128220000Y-24878000D01*
X128260000Y-17560000D02*
X128260000Y-19960000D01*
X128260000Y-22440000D02*
X128260000Y-24840000D01*
X128300000Y-17599000D02*
X128300000Y-19960000D01*
X128300000Y-22440000D02*
X128300000Y-24801000D01*
X128340000Y-17639000D02*
X128340000Y-19960000D01*
X128340000Y-22440000D02*
X128340000Y-24761000D01*
X128380000Y-17680000D02*
X128380000Y-19960000D01*
X128380000Y-22440000D02*
X128380000Y-24720000D01*
X128420000Y-17722000D02*
X128420000Y-19960000D01*
X128420000Y-22440000D02*
X128420000Y-24678000D01*
X128460000Y-17765000D02*
X128460000Y-24635000D01*
X128500000Y-17809000D02*
X128500000Y-24591000D01*
X128540000Y-17853000D02*
X128540000Y-24547000D01*
X128580000Y-17899000D02*
X128580000Y-24501000D01*
X128620000Y-17946000D02*
X128620000Y-24454000D01*
X128660000Y-17995000D02*
X128660000Y-24405000D01*
X128700000Y-18044000D02*
X128700000Y-24356000D01*
X128740000Y-18095000D02*
X128740000Y-24305000D01*
X128780000Y-18147000D02*
X128780000Y-24253000D01*
X128820000Y-18200000D02*
X128820000Y-24200000D01*
X128860000Y-18255000D02*
X128860000Y-24145000D01*
X128900000Y-18312000D02*
X128900000Y-24088000D01*
X128940000Y-18370000D02*
X128940000Y-24030000D01*
X128980000Y-18430000D02*
X128980000Y-23970000D01*
X129020000Y-18492000D02*
X129020000Y-23908000D01*
X129060000Y-18556000D02*
X129060000Y-23844000D01*
X129100000Y-18622000D02*
X129100000Y-23778000D01*
X129140000Y-18690000D02*
X129140000Y-23710000D01*
X129180000Y-18761000D02*
X129180000Y-23639000D01*
X129220000Y-18835000D02*
X129220000Y-23565000D01*
X129260000Y-18912000D02*
X129260000Y-23488000D01*
X129300000Y-18992000D02*
X129300000Y-23408000D01*
X129340000Y-19076000D02*
X129340000Y-23324000D01*
X129380000Y-19163000D02*
X129380000Y-23237000D01*
X129420000Y-19256000D02*
X129420000Y-23144000D01*
X129460000Y-19354000D02*
X129460000Y-23046000D01*
X129500000Y-19458000D02*
X129500000Y-22942000D01*
X129540000Y-19570000D02*
X129540000Y-22830000D01*
X129580000Y-19691000D02*
X129580000Y-22709000D01*
X129620000Y-19823000D02*
X129620000Y-22577000D01*
X129660000Y-19970000D02*
X129660000Y-22430000D01*
X129700000Y-20138000D02*
X129700000Y-22262000D01*
X129740000Y-20338000D02*
X129740000Y-22062000D01*
X129780000Y-20601000D02*
X129780000Y-21799000D01*
X129820000Y-21200000D02*
G75*
G02*
X119580000Y-21200000I-5120000J0D01*
G01*
X119580000Y-21200000D02*
G75*
G02*
X129820000Y-21200000I5120000J0D01*
G01*
%TO.C,D2*%
X112190000Y-15550000D02*
X112190000Y-18850000D01*
X112190000Y-15550000D02*
X117700000Y-15550000D01*
X112190000Y-18850000D02*
X117700000Y-18850000D01*
%TO.C,C11*%
X56038748Y-40235000D02*
X56561252Y-40235000D01*
X56038748Y-38765000D02*
X56561252Y-38765000D01*
%TO.C,R14*%
X65272936Y-36635000D02*
X65727064Y-36635000D01*
X65272936Y-35165000D02*
X65727064Y-35165000D01*
%TO.C,R12*%
X60785436Y-34965000D02*
X61239564Y-34965000D01*
X60785436Y-36435000D02*
X61239564Y-36435000D01*
%TO.C,R13*%
X65285436Y-31465000D02*
X65739564Y-31465000D01*
X65285436Y-32935000D02*
X65739564Y-32935000D01*
%TO.C,R16*%
X69872936Y-35535000D02*
X70327064Y-35535000D01*
X69872936Y-34065000D02*
X70327064Y-34065000D01*
%TO.C,R7*%
X51572936Y-32835000D02*
X52027064Y-32835000D01*
X51572936Y-31365000D02*
X52027064Y-31365000D01*
%TO.C,R9*%
X56285436Y-32935000D02*
X56739564Y-32935000D01*
X56285436Y-31465000D02*
X56739564Y-31465000D01*
%TO.C,R11*%
X60972936Y-32935000D02*
X61427064Y-32935000D01*
X60972936Y-31465000D02*
X61427064Y-31465000D01*
%TO.C,C10*%
X51638748Y-38465000D02*
X52161252Y-38465000D01*
X51638748Y-39935000D02*
X52161252Y-39935000D01*
%TO.C,C9*%
X47138748Y-38465000D02*
X47661252Y-38465000D01*
X47138748Y-39935000D02*
X47661252Y-39935000D01*
%TO.C,C6*%
X71738748Y-2735000D02*
X72261252Y-2735000D01*
X71738748Y-1265000D02*
X72261252Y-1265000D01*
%TO.C,C5*%
X75923748Y-1775000D02*
X76446252Y-1775000D01*
X75923748Y-3245000D02*
X76446252Y-3245000D01*
%TO.C,C13*%
X65238748Y-40135000D02*
X65761252Y-40135000D01*
X65238748Y-38665000D02*
X65761252Y-38665000D01*
%TO.C,J1*%
X90985000Y-63175000D02*
X90985000Y-65825000D01*
X88225000Y-65825000D02*
X90985000Y-65825000D01*
X88225000Y-63175000D02*
X90985000Y-63175000D01*
X88225000Y-63175000D02*
X88225000Y-65825000D01*
X88225000Y-61905000D02*
X88225000Y-60525000D01*
X88225000Y-60525000D02*
X89605000Y-60525000D01*
%TO.C,R3*%
X85647936Y-54536030D02*
X86102064Y-54536030D01*
X85647936Y-53066030D02*
X86102064Y-53066030D01*
%TO.C,U4*%
X66787500Y-47495000D02*
X66447500Y-47025000D01*
X67127500Y-47025000D01*
X66787500Y-47495000D01*
G36*
X66787500Y-47495000D02*
G01*
X66447500Y-47025000D01*
X67127500Y-47025000D01*
X66787500Y-47495000D01*
G37*
X75360000Y-57760000D02*
X75360000Y-57505000D01*
X75360000Y-47240000D02*
X75360000Y-47495000D01*
X71500000Y-57760000D02*
X75360000Y-57760000D01*
X71500000Y-57760000D02*
X67640000Y-57760000D01*
X71500000Y-47240000D02*
X75360000Y-47240000D01*
X71500000Y-47240000D02*
X67640000Y-47240000D01*
X67640000Y-57760000D02*
X67640000Y-57505000D01*
X67640000Y-47240000D02*
X67640000Y-47495000D01*
%TO.C,C12*%
X60538748Y-40035000D02*
X61061252Y-40035000D01*
X60538748Y-38565000D02*
X61061252Y-38565000D01*
%TO.C,C2*%
X112320000Y-21700000D02*
G75*
G02*
X102080000Y-21700000I-5120000J0D01*
G01*
X102080000Y-21700000D02*
G75*
G02*
X112320000Y-21700000I5120000J0D01*
G01*
X112280000Y-21101000D02*
X112280000Y-22299000D01*
X112240000Y-20838000D02*
X112240000Y-22562000D01*
X112200000Y-20638000D02*
X112200000Y-22762000D01*
X112160000Y-20470000D02*
X112160000Y-22930000D01*
X112120000Y-20323000D02*
X112120000Y-23077000D01*
X112080000Y-20191000D02*
X112080000Y-23209000D01*
X112040000Y-20070000D02*
X112040000Y-23330000D01*
X112000000Y-19958000D02*
X112000000Y-23442000D01*
X111960000Y-19854000D02*
X111960000Y-23546000D01*
X111920000Y-19756000D02*
X111920000Y-23644000D01*
X111880000Y-19663000D02*
X111880000Y-23737000D01*
X111840000Y-19576000D02*
X111840000Y-23824000D01*
X111800000Y-19492000D02*
X111800000Y-23908000D01*
X111760000Y-19412000D02*
X111760000Y-23988000D01*
X111720000Y-19335000D02*
X111720000Y-24065000D01*
X111680000Y-19261000D02*
X111680000Y-24139000D01*
X111640000Y-19190000D02*
X111640000Y-24210000D01*
X111600000Y-19122000D02*
X111600000Y-24278000D01*
X111560000Y-19056000D02*
X111560000Y-24344000D01*
X111520000Y-18992000D02*
X111520000Y-24408000D01*
X111480000Y-18930000D02*
X111480000Y-24470000D01*
X111440000Y-18870000D02*
X111440000Y-24530000D01*
X111400000Y-18812000D02*
X111400000Y-24588000D01*
X111360000Y-18755000D02*
X111360000Y-24645000D01*
X111320000Y-18700000D02*
X111320000Y-24700000D01*
X111280000Y-18647000D02*
X111280000Y-24753000D01*
X111240000Y-18595000D02*
X111240000Y-24805000D01*
X111200000Y-18544000D02*
X111200000Y-24856000D01*
X111160000Y-18495000D02*
X111160000Y-24905000D01*
X111120000Y-18446000D02*
X111120000Y-24954000D01*
X111080000Y-18399000D02*
X111080000Y-25001000D01*
X111040000Y-18353000D02*
X111040000Y-25047000D01*
X111000000Y-18309000D02*
X111000000Y-25091000D01*
X110960000Y-18265000D02*
X110960000Y-25135000D01*
X110920000Y-22940000D02*
X110920000Y-25178000D01*
X110920000Y-18222000D02*
X110920000Y-20460000D01*
X110880000Y-22940000D02*
X110880000Y-25220000D01*
X110880000Y-18180000D02*
X110880000Y-20460000D01*
X110840000Y-22940000D02*
X110840000Y-25261000D01*
X110840000Y-18139000D02*
X110840000Y-20460000D01*
X110800000Y-22940000D02*
X110800000Y-25301000D01*
X110800000Y-18099000D02*
X110800000Y-20460000D01*
X110760000Y-22940000D02*
X110760000Y-25340000D01*
X110760000Y-18060000D02*
X110760000Y-20460000D01*
X110720000Y-22940000D02*
X110720000Y-25378000D01*
X110720000Y-18022000D02*
X110720000Y-20460000D01*
X110680000Y-22940000D02*
X110680000Y-25416000D01*
X110680000Y-17984000D02*
X110680000Y-20460000D01*
X110640000Y-22940000D02*
X110640000Y-25452000D01*
X110640000Y-17948000D02*
X110640000Y-20460000D01*
X110600000Y-22940000D02*
X110600000Y-25488000D01*
X110600000Y-17912000D02*
X110600000Y-20460000D01*
X110560000Y-22940000D02*
X110560000Y-25523000D01*
X110560000Y-17877000D02*
X110560000Y-20460000D01*
X110520000Y-22940000D02*
X110520000Y-25558000D01*
X110520000Y-17842000D02*
X110520000Y-20460000D01*
X110480000Y-22940000D02*
X110480000Y-25591000D01*
X110480000Y-17809000D02*
X110480000Y-20460000D01*
X110440000Y-22940000D02*
X110440000Y-25624000D01*
X110440000Y-17776000D02*
X110440000Y-20460000D01*
X110400000Y-22940000D02*
X110400000Y-25657000D01*
X110400000Y-17743000D02*
X110400000Y-20460000D01*
X110360000Y-22940000D02*
X110360000Y-25688000D01*
X110360000Y-17712000D02*
X110360000Y-20460000D01*
X110320000Y-22940000D02*
X110320000Y-25720000D01*
X110320000Y-17680000D02*
X110320000Y-20460000D01*
X110280000Y-22940000D02*
X110280000Y-25750000D01*
X110280000Y-17650000D02*
X110280000Y-20460000D01*
X110240000Y-22940000D02*
X110240000Y-25780000D01*
X110240000Y-17620000D02*
X110240000Y-20460000D01*
X110200000Y-22940000D02*
X110200000Y-25809000D01*
X110200000Y-17591000D02*
X110200000Y-20460000D01*
X110160000Y-22940000D02*
X110160000Y-25838000D01*
X110160000Y-17562000D02*
X110160000Y-20460000D01*
X110120000Y-22940000D02*
X110120000Y-25866000D01*
X110120000Y-17534000D02*
X110120000Y-20460000D01*
X110080000Y-22940000D02*
X110080000Y-25893000D01*
X110080000Y-17507000D02*
X110080000Y-20460000D01*
X110040000Y-22940000D02*
X110040000Y-25920000D01*
X110040000Y-17480000D02*
X110040000Y-20460000D01*
X110000000Y-22940000D02*
X110000000Y-25947000D01*
X110000000Y-17453000D02*
X110000000Y-20460000D01*
X109960000Y-22940000D02*
X109960000Y-25972000D01*
X109960000Y-17428000D02*
X109960000Y-20460000D01*
X109920000Y-22940000D02*
X109920000Y-25998000D01*
X109920000Y-17402000D02*
X109920000Y-20460000D01*
X109880000Y-22940000D02*
X109880000Y-26023000D01*
X109880000Y-17377000D02*
X109880000Y-20460000D01*
X109840000Y-22940000D02*
X109840000Y-26047000D01*
X109840000Y-17353000D02*
X109840000Y-20460000D01*
X109800000Y-22940000D02*
X109800000Y-26071000D01*
X109800000Y-17329000D02*
X109800000Y-20460000D01*
X109760000Y-22940000D02*
X109760000Y-26094000D01*
X109760000Y-17306000D02*
X109760000Y-20460000D01*
X109720000Y-22940000D02*
X109720000Y-26117000D01*
X109720000Y-17283000D02*
X109720000Y-20460000D01*
X109680000Y-22940000D02*
X109680000Y-26139000D01*
X109680000Y-17261000D02*
X109680000Y-20460000D01*
X109640000Y-22940000D02*
X109640000Y-26161000D01*
X109640000Y-17239000D02*
X109640000Y-20460000D01*
X109600000Y-22940000D02*
X109600000Y-26183000D01*
X109600000Y-17217000D02*
X109600000Y-20460000D01*
X109560000Y-22940000D02*
X109560000Y-26204000D01*
X109560000Y-17196000D02*
X109560000Y-20460000D01*
X109520000Y-22940000D02*
X109520000Y-26224000D01*
X109520000Y-17176000D02*
X109520000Y-20460000D01*
X109480000Y-22940000D02*
X109480000Y-26244000D01*
X109480000Y-17156000D02*
X109480000Y-20460000D01*
X109440000Y-22940000D02*
X109440000Y-26264000D01*
X109440000Y-17136000D02*
X109440000Y-20460000D01*
X109400000Y-22940000D02*
X109400000Y-26283000D01*
X109400000Y-17117000D02*
X109400000Y-20460000D01*
X109360000Y-22940000D02*
X109360000Y-26302000D01*
X109360000Y-17098000D02*
X109360000Y-20460000D01*
X109320000Y-22940000D02*
X109320000Y-26320000D01*
X109320000Y-17080000D02*
X109320000Y-20460000D01*
X109280000Y-22940000D02*
X109280000Y-26338000D01*
X109280000Y-17062000D02*
X109280000Y-20460000D01*
X109240000Y-22940000D02*
X109240000Y-26356000D01*
X109240000Y-17044000D02*
X109240000Y-20460000D01*
X109200000Y-22940000D02*
X109200000Y-26373000D01*
X109200000Y-17027000D02*
X109200000Y-20460000D01*
X109160000Y-22940000D02*
X109160000Y-26390000D01*
X109160000Y-17010000D02*
X109160000Y-20460000D01*
X109120000Y-22940000D02*
X109120000Y-26406000D01*
X109120000Y-16994000D02*
X109120000Y-20460000D01*
X109080000Y-22940000D02*
X109080000Y-26422000D01*
X109080000Y-16978000D02*
X109080000Y-20460000D01*
X109040000Y-22940000D02*
X109040000Y-26438000D01*
X109040000Y-16962000D02*
X109040000Y-20460000D01*
X109000000Y-22940000D02*
X109000000Y-26453000D01*
X109000000Y-16947000D02*
X109000000Y-20460000D01*
X108960000Y-22940000D02*
X108960000Y-26468000D01*
X108960000Y-16932000D02*
X108960000Y-20460000D01*
X108920000Y-22940000D02*
X108920000Y-26482000D01*
X108920000Y-16918000D02*
X108920000Y-20460000D01*
X108880000Y-22940000D02*
X108880000Y-26497000D01*
X108880000Y-16903000D02*
X108880000Y-20460000D01*
X108840000Y-22940000D02*
X108840000Y-26510000D01*
X108840000Y-16890000D02*
X108840000Y-20460000D01*
X108800000Y-22940000D02*
X108800000Y-26524000D01*
X108800000Y-16876000D02*
X108800000Y-20460000D01*
X108760000Y-22940000D02*
X108760000Y-26537000D01*
X108760000Y-16863000D02*
X108760000Y-20460000D01*
X108720000Y-22940000D02*
X108720000Y-26549000D01*
X108720000Y-16851000D02*
X108720000Y-20460000D01*
X108680000Y-22940000D02*
X108680000Y-26561000D01*
X108680000Y-16839000D02*
X108680000Y-20460000D01*
X108640000Y-22940000D02*
X108640000Y-26573000D01*
X108640000Y-16827000D02*
X108640000Y-20460000D01*
X108600000Y-22940000D02*
X108600000Y-26585000D01*
X108600000Y-16815000D02*
X108600000Y-20460000D01*
X108560000Y-22940000D02*
X108560000Y-26596000D01*
X108560000Y-16804000D02*
X108560000Y-20460000D01*
X108520000Y-22940000D02*
X108520000Y-26607000D01*
X108520000Y-16793000D02*
X108520000Y-20460000D01*
X108480000Y-22940000D02*
X108480000Y-26617000D01*
X108480000Y-16783000D02*
X108480000Y-20460000D01*
X108440000Y-16772000D02*
X108440000Y-26628000D01*
X108400000Y-16763000D02*
X108400000Y-26637000D01*
X108360000Y-16753000D02*
X108360000Y-26647000D01*
X108320000Y-16744000D02*
X108320000Y-26656000D01*
X108280000Y-16735000D02*
X108280000Y-26665000D01*
X108240000Y-16727000D02*
X108240000Y-26673000D01*
X108200000Y-16719000D02*
X108200000Y-26681000D01*
X108160000Y-16711000D02*
X108160000Y-26689000D01*
X108120000Y-16703000D02*
X108120000Y-26697000D01*
X108080000Y-16696000D02*
X108080000Y-26704000D01*
X108040000Y-16689000D02*
X108040000Y-26711000D01*
X108000000Y-16683000D02*
X108000000Y-26717000D01*
X107960000Y-16677000D02*
X107960000Y-26723000D01*
X107920000Y-16671000D02*
X107920000Y-26729000D01*
X107880000Y-16665000D02*
X107880000Y-26735000D01*
X107840000Y-16660000D02*
X107840000Y-26740000D01*
X107800000Y-16655000D02*
X107800000Y-26745000D01*
X107760000Y-16651000D02*
X107760000Y-26749000D01*
X107720000Y-16646000D02*
X107720000Y-26754000D01*
X107680000Y-16643000D02*
X107680000Y-26757000D01*
X107640000Y-16639000D02*
X107640000Y-26761000D01*
X107600000Y-16636000D02*
X107600000Y-26764000D01*
X107560000Y-16633000D02*
X107560000Y-26767000D01*
X107520000Y-16630000D02*
X107520000Y-26770000D01*
X107480000Y-16628000D02*
X107480000Y-26772000D01*
X107440000Y-16626000D02*
X107440000Y-26774000D01*
X107400000Y-16624000D02*
X107400000Y-26776000D01*
X107360000Y-16623000D02*
X107360000Y-26777000D01*
X107320000Y-16621000D02*
X107320000Y-26779000D01*
X107280000Y-16621000D02*
X107280000Y-26779000D01*
X107240000Y-16620000D02*
X107240000Y-26780000D01*
X107200000Y-16620000D02*
X107200000Y-26780000D01*
X102220354Y-18325000D02*
X102220354Y-19325000D01*
X101720354Y-18825000D02*
X102720354Y-18825000D01*
%TO.C,R10*%
X56272936Y-36435000D02*
X56727064Y-36435000D01*
X56272936Y-34965000D02*
X56727064Y-34965000D01*
%TO.C,C4*%
X100218748Y-57985000D02*
X100741252Y-57985000D01*
X100218748Y-56515000D02*
X100741252Y-56515000D01*
%TO.C,C3*%
X100218748Y-54975000D02*
X100741252Y-54975000D01*
X100218748Y-53505000D02*
X100741252Y-53505000D01*
%TO.C,R2*%
X46172936Y-16935000D02*
X46627064Y-16935000D01*
X46172936Y-15465000D02*
X46627064Y-15465000D01*
%TO.C,C7*%
X50338748Y-14035000D02*
X50861252Y-14035000D01*
X50338748Y-12565000D02*
X50861252Y-12565000D01*
%TO.C,C8*%
X80238748Y-55735000D02*
X80761252Y-55735000D01*
X80238748Y-54265000D02*
X80761252Y-54265000D01*
%TO.C,R4*%
X85647936Y-57486030D02*
X86102064Y-57486030D01*
X85647936Y-56016030D02*
X86102064Y-56016030D01*
%TO.C,D1*%
X90725000Y-56660000D02*
X96235000Y-56660000D01*
X90725000Y-53360000D02*
X96235000Y-53360000D01*
X90725000Y-53360000D02*
X90725000Y-56660000D01*
%TO.C,R8*%
X51672936Y-36535000D02*
X52127064Y-36535000D01*
X51672936Y-35065000D02*
X52127064Y-35065000D01*
%TO.C,C14*%
X69188748Y-39735000D02*
X69711252Y-39735000D01*
X69188748Y-38265000D02*
X69711252Y-38265000D01*
%TO.C,BT1*%
X98427000Y-43620000D02*
G75*
G02*
X95580371Y-48121789I-10692020J3610012D01*
G01*
X95580371Y-31898211D02*
G75*
G02*
X98427000Y-36400000I-7845371J-8111789D01*
G01*
X79889629Y-48121789D02*
G75*
G02*
X77043000Y-43620000I7845366J8111785D01*
G01*
X77043000Y-36400000D02*
G75*
G02*
X79889628Y-31898210I10692020J-3610010D01*
G01*
X102045000Y-43620000D02*
X98427000Y-43620000D01*
X102045000Y-41910000D02*
X102045000Y-43620000D01*
X102045000Y-38110000D02*
X102045000Y-36400000D01*
X98427000Y-36400000D02*
X102045000Y-36400000D01*
X95582300Y-48120000D02*
X91595000Y-48120000D01*
X89395000Y-45920000D02*
X91595000Y-48120000D01*
X89395000Y-45920000D02*
X86075000Y-45920000D01*
X86075000Y-45920000D02*
X83875000Y-48120000D01*
X83875000Y-48120000D02*
X79887700Y-48120000D01*
X79887700Y-31900000D02*
X95582300Y-31900000D01*
X77043000Y-43620000D02*
X73425000Y-43620000D01*
X73425000Y-41910000D02*
X73425000Y-43620000D01*
X73425000Y-38110000D02*
X73425000Y-36400000D01*
X73425000Y-36400000D02*
X77043000Y-36400000D01*
%TO.C,J5*%
X59445000Y-24130000D02*
X60825000Y-24130000D01*
X59445000Y-25510000D02*
X59445000Y-24130000D01*
X59445000Y-26780000D02*
X59445000Y-29430000D01*
X59445000Y-26780000D02*
X62205000Y-26780000D01*
X59445000Y-29430000D02*
X62205000Y-29430000D01*
X62205000Y-26780000D02*
X62205000Y-29430000D01*
%TO.C,J7*%
X71385000Y-26780000D02*
X71385000Y-29430000D01*
X68625000Y-29430000D02*
X71385000Y-29430000D01*
X68625000Y-26780000D02*
X71385000Y-26780000D01*
X68625000Y-26780000D02*
X68625000Y-29430000D01*
X68625000Y-25510000D02*
X68625000Y-24130000D01*
X68625000Y-24130000D02*
X70005000Y-24130000D01*
%TO.C,J2*%
X45675000Y-24130000D02*
X47055000Y-24130000D01*
X45675000Y-25510000D02*
X45675000Y-24130000D01*
X45675000Y-26780000D02*
X45675000Y-29430000D01*
X45675000Y-26780000D02*
X48435000Y-26780000D01*
X45675000Y-29430000D02*
X48435000Y-29430000D01*
X48435000Y-26780000D02*
X48435000Y-29430000D01*
%TO.C,J6*%
X66795000Y-26780000D02*
X66795000Y-29430000D01*
X64035000Y-29430000D02*
X66795000Y-29430000D01*
X64035000Y-26780000D02*
X66795000Y-26780000D01*
X64035000Y-26780000D02*
X64035000Y-29430000D01*
X64035000Y-25510000D02*
X64035000Y-24130000D01*
X64035000Y-24130000D02*
X65415000Y-24130000D01*
%TO.C,J4*%
X54855000Y-24130000D02*
X56235000Y-24130000D01*
X54855000Y-25510000D02*
X54855000Y-24130000D01*
X54855000Y-26780000D02*
X54855000Y-29430000D01*
X54855000Y-26780000D02*
X57615000Y-26780000D01*
X54855000Y-29430000D02*
X57615000Y-29430000D01*
X57615000Y-26780000D02*
X57615000Y-29430000D01*
%TO.C,J3*%
X50265000Y-24130000D02*
X51645000Y-24130000D01*
X50265000Y-25510000D02*
X50265000Y-24130000D01*
X50265000Y-26780000D02*
X50265000Y-29430000D01*
X50265000Y-26780000D02*
X53025000Y-26780000D01*
X50265000Y-29430000D02*
X53025000Y-29430000D01*
X53025000Y-26780000D02*
X53025000Y-29430000D01*
%TO.C,R5*%
X46872936Y-32835000D02*
X47327064Y-32835000D01*
X46872936Y-31365000D02*
X47327064Y-31365000D01*
%TO.C,U2*%
X79255000Y-60500000D02*
X79015000Y-60170000D01*
X79495000Y-60170000D01*
X79255000Y-60500000D01*
G36*
X79255000Y-60500000D02*
G01*
X79015000Y-60170000D01*
X79495000Y-60170000D01*
X79255000Y-60500000D01*
G37*
X84295000Y-67220000D02*
X84295000Y-65960000D01*
X84295000Y-60400000D02*
X84295000Y-61660000D01*
X80535000Y-67220000D02*
X84295000Y-67220000D01*
X80535000Y-60400000D02*
X84295000Y-60400000D01*
%TO.C,L1*%
X114500000Y-15000000D02*
X101900000Y-15000000D01*
X114500000Y-12000000D02*
X114500000Y-15000000D01*
X114500000Y-2400000D02*
X114500000Y-5400000D01*
X101900000Y-15000000D02*
X101900000Y-12000000D01*
X101900000Y-5400000D02*
X101900000Y-2400000D01*
X101900000Y-2400000D02*
X114500000Y-2400000D01*
%TO.C,R6*%
X46972936Y-36535000D02*
X47427064Y-36535000D01*
X46972936Y-35065000D02*
X47427064Y-35065000D01*
%TO.C,R1*%
X46172936Y-12515000D02*
X46627064Y-12515000D01*
X46172936Y-13985000D02*
X46627064Y-13985000D01*
%TD*%
M02*
