M48
; DRILL file {KiCad 9.0.2} date 2026-04-16T16:52:04-0400
; FORMAT={-:-/ absolute / metric / decimal}
; #@! TF.CreationDate,2026-04-16T16:52:04-04:00
; #@! TF.GenerationSoftware,Kicad,Pcbnew,9.0.2
; #@! TF.FileFunction,Plated,1,2,PTH
FMAT,2
METRIC
; #@! TA.AperFunction,Plated,PTH,ViaDrill
T1C0.300
; #@! TA.AperFunction,Plated,PTH,ComponentDrill
T2C0.300
; #@! TA.AperFunction,Plated,PTH,ComponentDrill
T3C1.000
%
G90
G05
T1
X49.6Y-41.0
X50.8Y-30.6
X52.4Y-10.8
X56.5Y-41.2
X61.1Y-42.2
X65.1Y-42.6
X69.5Y-42.3
X78.3Y-51.5
X115.3Y-8.8
X130.6Y-16.6
T2
X85.085Y-7.76
X85.085Y-9.16
X85.785Y-7.06
X85.785Y-8.46
X85.785Y-9.86
X86.485Y-7.76
X86.485Y-9.16
X87.185Y-7.06
X87.185Y-8.46
X87.185Y-9.86
X87.885Y-7.76
X87.885Y-9.16
T3
X47.055Y-25.51
X47.055Y-28.05
X51.645Y-25.51
X51.645Y-28.05
X56.235Y-25.51
X56.235Y-28.05
X60.825Y-25.51
X60.825Y-28.05
X65.415Y-25.51
X65.415Y-28.05
X70.005Y-25.51
X70.005Y-28.05
X89.605Y-61.905
X89.605Y-64.445
X104.7Y-21.7
X109.7Y-21.7
X122.2Y-21.2
X127.2Y-21.2
M30
