%TF.GenerationSoftware,KiCad,Pcbnew,9.0.2*%
%TF.CreationDate,2026-04-16T16:51:41-04:00*%
%TF.ProjectId,Tractian_Edge_Node,54726163-7469-4616-9e5f-456467655f4e,rev?*%
%TF.SameCoordinates,Original*%
%TF.FileFunction,Copper,L2,Bot*%
%TF.FilePolarity,Positive*%
%FSLAX46Y46*%
G04 Gerber Fmt 4.6, Leading zero omitted, Abs format (unit mm)*
G04 Created by KiCad (PCBNEW 9.0.2) date 2026-04-16 16:51:41*
%MOMM*%
%LPD*%
G01*
G04 APERTURE LIST*
G04 Aperture macros list*
%AMRoundRect*
0 Rectangle with rounded corners*
0 $1 Rounding radius*
0 $2 $3 $4 $5 $6 $7 $8 $9 X,Y pos of 4 corners*
0 Add a 4 corners polygon primitive as box body*
4,1,4,$2,$3,$4,$5,$6,$7,$8,$9,$2,$3,0*
0 Add four circle primitives for the rounded corners*
1,1,$1+$1,$2,$3*
1,1,$1+$1,$4,$5*
1,1,$1+$1,$6,$7*
1,1,$1+$1,$8,$9*
0 Add four rect primitives between the rounded corners*
20,1,$1+$1,$2,$3,$4,$5,0*
20,1,$1+$1,$4,$5,$6,$7,0*
20,1,$1+$1,$6,$7,$8,$9,0*
20,1,$1+$1,$8,$9,$2,$3,0*%
G04 Aperture macros list end*
%TA.AperFunction,HeatsinkPad*%
%ADD10C,0.600000*%
%TD*%
%TA.AperFunction,ComponentPad*%
%ADD11RoundRect,0.250000X-0.750000X-0.750000X0.750000X-0.750000X0.750000X0.750000X-0.750000X0.750000X0*%
%TD*%
%TA.AperFunction,ComponentPad*%
%ADD12C,2.000000*%
%TD*%
%TA.AperFunction,ComponentPad*%
%ADD13C,1.700000*%
%TD*%
%TA.AperFunction,ComponentPad*%
%ADD14R,1.700000X1.700000*%
%TD*%
%TA.AperFunction,ViaPad*%
%ADD15C,0.600000*%
%TD*%
%TA.AperFunction,Conductor*%
%ADD16C,0.200000*%
%TD*%
G04 APERTURE END LIST*
D10*
%TO.P,U3,41,GND*%
%TO.N,GND*%
X85785000Y-8460000D03*
X85785000Y-7060000D03*
X85085000Y-7760000D03*
X85085000Y-9160000D03*
X86485000Y-7760000D03*
X87185000Y-7060000D03*
X87885000Y-7760000D03*
X87185000Y-8460000D03*
X87885000Y-9160000D03*
X86485000Y-9160000D03*
X87185000Y-9860000D03*
X85785000Y-9860000D03*
%TD*%
D11*
%TO.P,C1,1*%
%TO.N,Net-(D1-A1)*%
X122200000Y-21200000D03*
D12*
%TO.P,C1,2*%
%TO.N,GND*%
X127200000Y-21200000D03*
%TD*%
D13*
%TO.P,J1,2,Pin_2*%
%TO.N,GND*%
X89605000Y-64445000D03*
D14*
%TO.P,J1,1,Pin_1*%
%TO.N,Net-(D1-A1)*%
X89605000Y-61905000D03*
%TD*%
D12*
%TO.P,C2,2*%
%TO.N,GND*%
X109700000Y-21700000D03*
D11*
%TO.P,C2,1*%
%TO.N,/Power_Delivery/+5V*%
X104700000Y-21700000D03*
%TD*%
D14*
%TO.P,J5,1,Pin_1*%
%TO.N,Net-(J5-Pin_1)*%
X60825000Y-25510000D03*
D13*
%TO.P,J5,2,Pin_2*%
%TO.N,GND*%
X60825000Y-28050000D03*
%TD*%
%TO.P,J7,2,Pin_2*%
%TO.N,GND*%
X70005000Y-28050000D03*
D14*
%TO.P,J7,1,Pin_1*%
%TO.N,Net-(J7-Pin_1)*%
X70005000Y-25510000D03*
%TD*%
%TO.P,J2,1,Pin_1*%
%TO.N,Net-(J2-Pin_1)*%
X47055000Y-25510000D03*
D13*
%TO.P,J2,2,Pin_2*%
%TO.N,GND*%
X47055000Y-28050000D03*
%TD*%
%TO.P,J6,2,Pin_2*%
%TO.N,GND*%
X65415000Y-28050000D03*
D14*
%TO.P,J6,1,Pin_1*%
%TO.N,Net-(J6-Pin_1)*%
X65415000Y-25510000D03*
%TD*%
%TO.P,J4,1,Pin_1*%
%TO.N,Net-(J4-Pin_1)*%
X56235000Y-25510000D03*
D13*
%TO.P,J4,2,Pin_2*%
%TO.N,GND*%
X56235000Y-28050000D03*
%TD*%
D14*
%TO.P,J3,1,Pin_1*%
%TO.N,Net-(J3-Pin_1)*%
X51645000Y-25510000D03*
D13*
%TO.P,J3,2,Pin_2*%
%TO.N,GND*%
X51645000Y-28050000D03*
%TD*%
D15*
%TO.N,GND*%
X52400000Y-10800000D03*
X69500000Y-42300000D03*
X50800000Y-30600000D03*
X56500000Y-41200000D03*
X49600000Y-41000000D03*
X115300000Y-8800000D03*
X130600000Y-16600000D03*
X78300000Y-51500000D03*
X65100000Y-42600000D03*
X61100000Y-42200000D03*
%TD*%
D16*
%TO.N,GND*%
X50800000Y-30600000D02*
X50600000Y-30400000D01*
X56500000Y-41200000D02*
X57600000Y-41200000D01*
%TD*%
%TA.AperFunction,Conductor*%
%TO.N,GND*%
G36*
X148142539Y79815D02*
G01*
X148188294Y27011D01*
X148199500Y-24500D01*
X148199500Y-19925410D01*
X148199498Y-19926026D01*
X147900612Y-80076829D01*
X147880595Y-80143770D01*
X147827564Y-80189262D01*
X147776829Y-80200213D01*
X32688750Y-80399500D01*
X32523232Y-80399500D01*
X32456193Y-80379815D01*
X32410438Y-80327011D01*
X32399234Y-80276267D01*
X32398763Y-80200213D01*
X32309623Y-65795000D01*
X32307883Y-65513778D01*
X32300586Y-64334648D01*
X32279995Y-61007135D01*
X88254500Y-61007135D01*
X88254500Y-62802870D01*
X88254501Y-62802876D01*
X88260908Y-62862483D01*
X88311202Y-62997328D01*
X88311206Y-62997335D01*
X88397452Y-63112544D01*
X88397455Y-63112547D01*
X88512664Y-63198793D01*
X88512671Y-63198797D01*
X88557618Y-63215561D01*
X88647517Y-63249091D01*
X88707127Y-63255500D01*
X88717685Y-63255499D01*
X88784723Y-63275179D01*
X88805372Y-63291818D01*
X89475591Y-63962037D01*
X89412007Y-63979075D01*
X89297993Y-64044901D01*
X89204901Y-64137993D01*
X89139075Y-64252007D01*
X89122037Y-64315591D01*
X88489728Y-63683282D01*
X88489727Y-63683282D01*
X88450380Y-63737439D01*
X88353904Y-63926782D01*
X88288242Y-64128869D01*
X88288242Y-64128872D01*
X88255000Y-64338753D01*
X88255000Y-64551246D01*
X88288242Y-64761127D01*
X88288242Y-64761130D01*
X88353904Y-64963217D01*
X88450375Y-65152550D01*
X88489728Y-65206716D01*
X89122037Y-64574408D01*
X89139075Y-64637993D01*
X89204901Y-64752007D01*
X89297993Y-64845099D01*
X89412007Y-64910925D01*
X89475590Y-64927962D01*
X88843282Y-65560269D01*
X88843282Y-65560270D01*
X88897449Y-65599624D01*
X89086782Y-65696095D01*
X89288870Y-65761757D01*
X89498754Y-65795000D01*
X89711246Y-65795000D01*
X89921127Y-65761757D01*
X89921130Y-65761757D01*
X90123217Y-65696095D01*
X90312554Y-65599622D01*
X90366716Y-65560270D01*
X90366717Y-65560270D01*
X89734408Y-64927962D01*
X89797993Y-64910925D01*
X89912007Y-64845099D01*
X90005099Y-64752007D01*
X90070925Y-64637993D01*
X90087962Y-64574408D01*
X90720270Y-65206717D01*
X90720270Y-65206716D01*
X90759622Y-65152554D01*
X90856095Y-64963217D01*
X90921757Y-64761130D01*
X90921757Y-64761127D01*
X90955000Y-64551246D01*
X90955000Y-64338753D01*
X90921757Y-64128872D01*
X90921757Y-64128869D01*
X90856095Y-63926782D01*
X90759624Y-63737449D01*
X90720270Y-63683282D01*
X90720269Y-63683282D01*
X90087962Y-64315590D01*
X90070925Y-64252007D01*
X90005099Y-64137993D01*
X89912007Y-64044901D01*
X89797993Y-63979075D01*
X89734409Y-63962037D01*
X90404627Y-63291818D01*
X90465950Y-63258333D01*
X90492307Y-63255499D01*
X90502872Y-63255499D01*
X90562483Y-63249091D01*
X90697331Y-63198796D01*
X90812546Y-63112546D01*
X90898796Y-62997331D01*
X90949091Y-62862483D01*
X90955500Y-62802873D01*
X90955499Y-61007128D01*
X90949091Y-60947517D01*
X90898796Y-60812669D01*
X90898795Y-60812668D01*
X90898793Y-60812664D01*
X90812547Y-60697455D01*
X90812544Y-60697452D01*
X90697335Y-60611206D01*
X90697328Y-60611202D01*
X90562482Y-60560908D01*
X90562483Y-60560908D01*
X90502883Y-60554501D01*
X90502881Y-60554500D01*
X90502873Y-60554500D01*
X90502864Y-60554500D01*
X88707129Y-60554500D01*
X88707123Y-60554501D01*
X88647516Y-60560908D01*
X88512671Y-60611202D01*
X88512664Y-60611206D01*
X88397455Y-60697452D01*
X88397452Y-60697455D01*
X88311206Y-60812664D01*
X88311202Y-60812671D01*
X88260908Y-60947517D01*
X88254501Y-61007116D01*
X88254501Y-61007123D01*
X88254500Y-61007135D01*
X32279995Y-61007135D01*
X32279979Y-61004573D01*
X32200502Y-48161123D01*
X32200500Y-48160356D01*
X32200500Y-24612135D01*
X45704500Y-24612135D01*
X45704500Y-26407870D01*
X45704501Y-26407876D01*
X45710908Y-26467483D01*
X45761202Y-26602328D01*
X45761206Y-26602335D01*
X45847452Y-26717544D01*
X45847455Y-26717547D01*
X45962664Y-26803793D01*
X45962671Y-26803797D01*
X46007618Y-26820561D01*
X46097517Y-26854091D01*
X46157127Y-26860500D01*
X46167685Y-26860499D01*
X46234723Y-26880179D01*
X46255372Y-26896818D01*
X46925591Y-27567037D01*
X46862007Y-27584075D01*
X46747993Y-27649901D01*
X46654901Y-27742993D01*
X46589075Y-27857007D01*
X46572037Y-27920591D01*
X45939728Y-27288282D01*
X45939727Y-27288282D01*
X45900380Y-27342439D01*
X45803904Y-27531782D01*
X45738242Y-27733869D01*
X45738242Y-27733872D01*
X45705000Y-27943753D01*
X45705000Y-28156246D01*
X45738242Y-28366127D01*
X45738242Y-28366130D01*
X45803904Y-28568217D01*
X45900375Y-28757550D01*
X45939728Y-28811716D01*
X46572037Y-28179408D01*
X46589075Y-28242993D01*
X46654901Y-28357007D01*
X46747993Y-28450099D01*
X46862007Y-28515925D01*
X46925590Y-28532962D01*
X46293282Y-29165269D01*
X46293282Y-29165270D01*
X46347449Y-29204624D01*
X46536782Y-29301095D01*
X46738870Y-29366757D01*
X46948754Y-29400000D01*
X47161246Y-29400000D01*
X47371127Y-29366757D01*
X47371130Y-29366757D01*
X47573217Y-29301095D01*
X47762554Y-29204622D01*
X47816716Y-29165270D01*
X47816717Y-29165270D01*
X47184408Y-28532962D01*
X47247993Y-28515925D01*
X47362007Y-28450099D01*
X47455099Y-28357007D01*
X47520925Y-28242993D01*
X47537962Y-28179408D01*
X48170270Y-28811717D01*
X48170270Y-28811716D01*
X48209622Y-28757554D01*
X48306095Y-28568217D01*
X48371757Y-28366130D01*
X48371757Y-28366127D01*
X48405000Y-28156246D01*
X48405000Y-27943753D01*
X48371757Y-27733872D01*
X48371757Y-27733869D01*
X48306095Y-27531782D01*
X48209624Y-27342449D01*
X48170270Y-27288282D01*
X48170269Y-27288282D01*
X47537962Y-27920590D01*
X47520925Y-27857007D01*
X47455099Y-27742993D01*
X47362007Y-27649901D01*
X47247993Y-27584075D01*
X47184409Y-27567037D01*
X47854627Y-26896818D01*
X47915950Y-26863333D01*
X47942307Y-26860499D01*
X47952872Y-26860499D01*
X48012483Y-26854091D01*
X48147331Y-26803796D01*
X48262546Y-26717546D01*
X48348796Y-26602331D01*
X48399091Y-26467483D01*
X48405500Y-26407873D01*
X48405499Y-24612135D01*
X50294500Y-24612135D01*
X50294500Y-26407870D01*
X50294501Y-26407876D01*
X50300908Y-26467483D01*
X50351202Y-26602328D01*
X50351206Y-26602335D01*
X50437452Y-26717544D01*
X50437455Y-26717547D01*
X50552664Y-26803793D01*
X50552671Y-26803797D01*
X50597618Y-26820561D01*
X50687517Y-26854091D01*
X50747127Y-26860500D01*
X50757685Y-26860499D01*
X50824723Y-26880179D01*
X50845372Y-26896818D01*
X51515591Y-27567037D01*
X51452007Y-27584075D01*
X51337993Y-27649901D01*
X51244901Y-27742993D01*
X51179075Y-27857007D01*
X51162037Y-27920591D01*
X50529728Y-27288282D01*
X50529727Y-27288282D01*
X50490380Y-27342439D01*
X50393904Y-27531782D01*
X50328242Y-27733869D01*
X50328242Y-27733872D01*
X50295000Y-27943753D01*
X50295000Y-28156246D01*
X50328242Y-28366127D01*
X50328242Y-28366130D01*
X50393904Y-28568217D01*
X50490375Y-28757550D01*
X50529728Y-28811716D01*
X51162037Y-28179408D01*
X51179075Y-28242993D01*
X51244901Y-28357007D01*
X51337993Y-28450099D01*
X51452007Y-28515925D01*
X51515590Y-28532962D01*
X50883282Y-29165269D01*
X50883282Y-29165270D01*
X50937449Y-29204624D01*
X51126782Y-29301095D01*
X51328870Y-29366757D01*
X51538754Y-29400000D01*
X51751246Y-29400000D01*
X51961127Y-29366757D01*
X51961130Y-29366757D01*
X52163217Y-29301095D01*
X52352554Y-29204622D01*
X52406716Y-29165270D01*
X52406717Y-29165270D01*
X51774408Y-28532962D01*
X51837993Y-28515925D01*
X51952007Y-28450099D01*
X52045099Y-28357007D01*
X52110925Y-28242993D01*
X52127962Y-28179409D01*
X52760270Y-28811717D01*
X52760270Y-28811716D01*
X52799622Y-28757554D01*
X52896095Y-28568217D01*
X52961757Y-28366130D01*
X52961757Y-28366127D01*
X52995000Y-28156246D01*
X52995000Y-27943753D01*
X52961757Y-27733872D01*
X52961757Y-27733869D01*
X52896095Y-27531782D01*
X52799624Y-27342449D01*
X52760270Y-27288282D01*
X52760269Y-27288282D01*
X52127962Y-27920590D01*
X52110925Y-27857007D01*
X52045099Y-27742993D01*
X51952007Y-27649901D01*
X51837993Y-27584075D01*
X51774409Y-27567037D01*
X52444627Y-26896818D01*
X52505950Y-26863333D01*
X52532307Y-26860499D01*
X52542872Y-26860499D01*
X52602483Y-26854091D01*
X52737331Y-26803796D01*
X52852546Y-26717546D01*
X52938796Y-26602331D01*
X52989091Y-26467483D01*
X52995500Y-26407873D01*
X52995499Y-24612135D01*
X54884500Y-24612135D01*
X54884500Y-26407870D01*
X54884501Y-26407876D01*
X54890908Y-26467483D01*
X54941202Y-26602328D01*
X54941206Y-26602335D01*
X55027452Y-26717544D01*
X55027455Y-26717547D01*
X55142664Y-26803793D01*
X55142671Y-26803797D01*
X55187618Y-26820561D01*
X55277517Y-26854091D01*
X55337127Y-26860500D01*
X55347685Y-26860499D01*
X55414723Y-26880179D01*
X55435372Y-26896818D01*
X56105591Y-27567037D01*
X56042007Y-27584075D01*
X55927993Y-27649901D01*
X55834901Y-27742993D01*
X55769075Y-27857007D01*
X55752037Y-27920591D01*
X55119728Y-27288282D01*
X55119727Y-27288282D01*
X55080380Y-27342439D01*
X54983904Y-27531782D01*
X54918242Y-27733869D01*
X54918242Y-27733872D01*
X54885000Y-27943753D01*
X54885000Y-28156246D01*
X54918242Y-28366127D01*
X54918242Y-28366130D01*
X54983904Y-28568217D01*
X55080375Y-28757550D01*
X55119728Y-28811716D01*
X55752037Y-28179408D01*
X55769075Y-28242993D01*
X55834901Y-28357007D01*
X55927993Y-28450099D01*
X56042007Y-28515925D01*
X56105590Y-28532962D01*
X55473282Y-29165269D01*
X55473282Y-29165270D01*
X55527449Y-29204624D01*
X55716782Y-29301095D01*
X55918870Y-29366757D01*
X56128754Y-29400000D01*
X56341246Y-29400000D01*
X56551127Y-29366757D01*
X56551130Y-29366757D01*
X56753217Y-29301095D01*
X56942554Y-29204622D01*
X56996716Y-29165270D01*
X56996717Y-29165270D01*
X56364408Y-28532962D01*
X56427993Y-28515925D01*
X56542007Y-28450099D01*
X56635099Y-28357007D01*
X56700925Y-28242993D01*
X56717962Y-28179408D01*
X57350270Y-28811717D01*
X57350270Y-28811716D01*
X57389622Y-28757554D01*
X57486095Y-28568217D01*
X57551757Y-28366130D01*
X57551757Y-28366127D01*
X57585000Y-28156246D01*
X57585000Y-27943753D01*
X57551757Y-27733872D01*
X57551757Y-27733869D01*
X57486095Y-27531782D01*
X57389624Y-27342449D01*
X57350270Y-27288282D01*
X57350269Y-27288282D01*
X56717962Y-27920590D01*
X56700925Y-27857007D01*
X56635099Y-27742993D01*
X56542007Y-27649901D01*
X56427993Y-27584075D01*
X56364409Y-27567037D01*
X57034627Y-26896818D01*
X57095950Y-26863333D01*
X57122307Y-26860499D01*
X57132872Y-26860499D01*
X57192483Y-26854091D01*
X57327331Y-26803796D01*
X57442546Y-26717546D01*
X57528796Y-26602331D01*
X57579091Y-26467483D01*
X57585500Y-26407873D01*
X57585499Y-24612135D01*
X59474500Y-24612135D01*
X59474500Y-26407870D01*
X59474501Y-26407876D01*
X59480908Y-26467483D01*
X59531202Y-26602328D01*
X59531206Y-26602335D01*
X59617452Y-26717544D01*
X59617455Y-26717547D01*
X59732664Y-26803793D01*
X59732671Y-26803797D01*
X59777618Y-26820561D01*
X59867517Y-26854091D01*
X59927127Y-26860500D01*
X59937685Y-26860499D01*
X60004723Y-26880179D01*
X60025372Y-26896818D01*
X60695591Y-27567037D01*
X60632007Y-27584075D01*
X60517993Y-27649901D01*
X60424901Y-27742993D01*
X60359075Y-27857007D01*
X60342037Y-27920591D01*
X59709728Y-27288282D01*
X59709727Y-27288282D01*
X59670380Y-27342439D01*
X59573904Y-27531782D01*
X59508242Y-27733869D01*
X59508242Y-27733872D01*
X59475000Y-27943753D01*
X59475000Y-28156246D01*
X59508242Y-28366127D01*
X59508242Y-28366130D01*
X59573904Y-28568217D01*
X59670375Y-28757550D01*
X59709728Y-28811716D01*
X60342037Y-28179408D01*
X60359075Y-28242993D01*
X60424901Y-28357007D01*
X60517993Y-28450099D01*
X60632007Y-28515925D01*
X60695590Y-28532962D01*
X60063282Y-29165269D01*
X60063282Y-29165270D01*
X60117449Y-29204624D01*
X60306782Y-29301095D01*
X60508870Y-29366757D01*
X60718754Y-29400000D01*
X60931246Y-29400000D01*
X61141127Y-29366757D01*
X61141130Y-29366757D01*
X61343217Y-29301095D01*
X61532554Y-29204622D01*
X61586716Y-29165270D01*
X61586717Y-29165270D01*
X60954408Y-28532962D01*
X61017993Y-28515925D01*
X61132007Y-28450099D01*
X61225099Y-28357007D01*
X61290925Y-28242993D01*
X61307962Y-28179408D01*
X61940270Y-28811717D01*
X61940270Y-28811716D01*
X61979622Y-28757554D01*
X62076095Y-28568217D01*
X62141757Y-28366130D01*
X62141757Y-28366127D01*
X62175000Y-28156246D01*
X62175000Y-27943753D01*
X62141757Y-27733872D01*
X62141757Y-27733869D01*
X62076095Y-27531782D01*
X61979624Y-27342449D01*
X61940270Y-27288282D01*
X61307962Y-27920590D01*
X61290925Y-27857007D01*
X61225099Y-27742993D01*
X61132007Y-27649901D01*
X61017993Y-27584075D01*
X60954409Y-27567037D01*
X61624627Y-26896818D01*
X61685950Y-26863333D01*
X61712307Y-26860499D01*
X61722872Y-26860499D01*
X61782483Y-26854091D01*
X61917331Y-26803796D01*
X62032546Y-26717546D01*
X62118796Y-26602331D01*
X62169091Y-26467483D01*
X62175500Y-26407873D01*
X62175499Y-24612135D01*
X64064500Y-24612135D01*
X64064500Y-26407870D01*
X64064501Y-26407876D01*
X64070908Y-26467483D01*
X64121202Y-26602328D01*
X64121206Y-26602335D01*
X64207452Y-26717544D01*
X64207455Y-26717547D01*
X64322664Y-26803793D01*
X64322671Y-26803797D01*
X64367618Y-26820561D01*
X64457517Y-26854091D01*
X64517127Y-26860500D01*
X64527685Y-26860499D01*
X64594723Y-26880179D01*
X64615372Y-26896818D01*
X65285591Y-27567037D01*
X65222007Y-27584075D01*
X65107993Y-27649901D01*
X65014901Y-27742993D01*
X64949075Y-27857007D01*
X64932037Y-27920591D01*
X64299728Y-27288282D01*
X64299727Y-27288282D01*
X64260380Y-27342439D01*
X64163904Y-27531782D01*
X64098242Y-27733869D01*
X64098242Y-27733872D01*
X64065000Y-27943753D01*
X64065000Y-28156246D01*
X64098242Y-28366127D01*
X64098242Y-28366130D01*
X64163904Y-28568217D01*
X64260375Y-28757550D01*
X64299728Y-28811716D01*
X64932037Y-28179408D01*
X64949075Y-28242993D01*
X65014901Y-28357007D01*
X65107993Y-28450099D01*
X65222007Y-28515925D01*
X65285590Y-28532962D01*
X64653282Y-29165269D01*
X64653282Y-29165270D01*
X64707449Y-29204624D01*
X64896782Y-29301095D01*
X65098870Y-29366757D01*
X65308754Y-29400000D01*
X65521246Y-29400000D01*
X65731127Y-29366757D01*
X65731130Y-29366757D01*
X65933217Y-29301095D01*
X66122554Y-29204622D01*
X66176716Y-29165270D01*
X66176717Y-29165270D01*
X65544408Y-28532962D01*
X65607993Y-28515925D01*
X65722007Y-28450099D01*
X65815099Y-28357007D01*
X65880925Y-28242993D01*
X65897962Y-28179408D01*
X66530270Y-28811717D01*
X66530270Y-28811716D01*
X66569622Y-28757554D01*
X66666095Y-28568217D01*
X66731757Y-28366130D01*
X66731757Y-28366127D01*
X66765000Y-28156246D01*
X66765000Y-27943753D01*
X66731757Y-27733872D01*
X66731757Y-27733869D01*
X66666095Y-27531782D01*
X66569624Y-27342449D01*
X66530270Y-27288282D01*
X65897962Y-27920590D01*
X65880925Y-27857007D01*
X65815099Y-27742993D01*
X65722007Y-27649901D01*
X65607993Y-27584075D01*
X65544409Y-27567037D01*
X66214627Y-26896818D01*
X66275950Y-26863333D01*
X66302307Y-26860499D01*
X66312872Y-26860499D01*
X66372483Y-26854091D01*
X66507331Y-26803796D01*
X66622546Y-26717546D01*
X66708796Y-26602331D01*
X66759091Y-26467483D01*
X66765500Y-26407873D01*
X66765499Y-24612135D01*
X68654500Y-24612135D01*
X68654500Y-26407870D01*
X68654501Y-26407876D01*
X68660908Y-26467483D01*
X68711202Y-26602328D01*
X68711206Y-26602335D01*
X68797452Y-26717544D01*
X68797455Y-26717547D01*
X68912664Y-26803793D01*
X68912671Y-26803797D01*
X68957618Y-26820561D01*
X69047517Y-26854091D01*
X69107127Y-26860500D01*
X69117685Y-26860499D01*
X69184723Y-26880179D01*
X69205372Y-26896818D01*
X69875591Y-27567037D01*
X69812007Y-27584075D01*
X69697993Y-27649901D01*
X69604901Y-27742993D01*
X69539075Y-27857007D01*
X69522037Y-27920591D01*
X68889728Y-27288282D01*
X68889727Y-27288282D01*
X68850380Y-27342439D01*
X68753904Y-27531782D01*
X68688242Y-27733869D01*
X68688242Y-27733872D01*
X68655000Y-27943753D01*
X68655000Y-28156246D01*
X68688242Y-28366127D01*
X68688242Y-28366130D01*
X68753904Y-28568217D01*
X68850375Y-28757550D01*
X68889728Y-28811716D01*
X69522037Y-28179408D01*
X69539075Y-28242993D01*
X69604901Y-28357007D01*
X69697993Y-28450099D01*
X69812007Y-28515925D01*
X69875590Y-28532962D01*
X69243282Y-29165269D01*
X69243282Y-29165270D01*
X69297449Y-29204624D01*
X69486782Y-29301095D01*
X69688870Y-29366757D01*
X69898754Y-29400000D01*
X70111246Y-29400000D01*
X70321127Y-29366757D01*
X70321130Y-29366757D01*
X70523217Y-29301095D01*
X70712554Y-29204622D01*
X70766716Y-29165270D01*
X70766717Y-29165270D01*
X70134408Y-28532962D01*
X70197993Y-28515925D01*
X70312007Y-28450099D01*
X70405099Y-28357007D01*
X70470925Y-28242993D01*
X70487962Y-28179408D01*
X71120270Y-28811717D01*
X71120270Y-28811716D01*
X71159622Y-28757554D01*
X71256095Y-28568217D01*
X71321757Y-28366130D01*
X71321757Y-28366127D01*
X71355000Y-28156246D01*
X71355000Y-27943753D01*
X71321757Y-27733872D01*
X71321757Y-27733869D01*
X71256095Y-27531782D01*
X71159624Y-27342449D01*
X71120270Y-27288282D01*
X70487962Y-27920590D01*
X70470925Y-27857007D01*
X70405099Y-27742993D01*
X70312007Y-27649901D01*
X70197993Y-27584075D01*
X70134409Y-27567037D01*
X70804627Y-26896818D01*
X70865950Y-26863333D01*
X70892307Y-26860499D01*
X70902872Y-26860499D01*
X70962483Y-26854091D01*
X71097331Y-26803796D01*
X71212546Y-26717546D01*
X71298796Y-26602331D01*
X71349091Y-26467483D01*
X71355500Y-26407873D01*
X71355499Y-24612128D01*
X71349091Y-24552517D01*
X71298796Y-24417669D01*
X71298795Y-24417668D01*
X71298793Y-24417664D01*
X71212547Y-24302455D01*
X71212544Y-24302452D01*
X71097335Y-24216206D01*
X71097328Y-24216202D01*
X70962482Y-24165908D01*
X70962483Y-24165908D01*
X70902883Y-24159501D01*
X70902881Y-24159500D01*
X70902873Y-24159500D01*
X70902864Y-24159500D01*
X69107129Y-24159500D01*
X69107123Y-24159501D01*
X69047516Y-24165908D01*
X68912671Y-24216202D01*
X68912664Y-24216206D01*
X68797455Y-24302452D01*
X68797452Y-24302455D01*
X68711206Y-24417664D01*
X68711202Y-24417671D01*
X68660908Y-24552517D01*
X68654501Y-24612116D01*
X68654501Y-24612123D01*
X68654500Y-24612135D01*
X66765499Y-24612135D01*
X66765499Y-24612128D01*
X66759091Y-24552517D01*
X66708796Y-24417669D01*
X66708795Y-24417668D01*
X66708793Y-24417664D01*
X66622547Y-24302455D01*
X66622544Y-24302452D01*
X66507335Y-24216206D01*
X66507328Y-24216202D01*
X66372482Y-24165908D01*
X66372483Y-24165908D01*
X66312883Y-24159501D01*
X66312881Y-24159500D01*
X66312873Y-24159500D01*
X66312864Y-24159500D01*
X64517129Y-24159500D01*
X64517123Y-24159501D01*
X64457516Y-24165908D01*
X64322671Y-24216202D01*
X64322664Y-24216206D01*
X64207455Y-24302452D01*
X64207452Y-24302455D01*
X64121206Y-24417664D01*
X64121202Y-24417671D01*
X64070908Y-24552517D01*
X64064501Y-24612116D01*
X64064501Y-24612123D01*
X64064500Y-24612135D01*
X62175499Y-24612135D01*
X62175499Y-24612128D01*
X62169091Y-24552517D01*
X62118796Y-24417669D01*
X62118795Y-24417668D01*
X62118793Y-24417664D01*
X62032547Y-24302455D01*
X62032544Y-24302452D01*
X61917335Y-24216206D01*
X61917328Y-24216202D01*
X61782482Y-24165908D01*
X61782483Y-24165908D01*
X61722883Y-24159501D01*
X61722881Y-24159500D01*
X61722873Y-24159500D01*
X61722864Y-24159500D01*
X59927129Y-24159500D01*
X59927123Y-24159501D01*
X59867516Y-24165908D01*
X59732671Y-24216202D01*
X59732664Y-24216206D01*
X59617455Y-24302452D01*
X59617452Y-24302455D01*
X59531206Y-24417664D01*
X59531202Y-24417671D01*
X59480908Y-24552517D01*
X59474501Y-24612116D01*
X59474501Y-24612123D01*
X59474500Y-24612135D01*
X57585499Y-24612135D01*
X57585499Y-24612128D01*
X57579091Y-24552517D01*
X57528796Y-24417669D01*
X57528795Y-24417668D01*
X57528793Y-24417664D01*
X57442547Y-24302455D01*
X57442544Y-24302452D01*
X57327335Y-24216206D01*
X57327328Y-24216202D01*
X57192482Y-24165908D01*
X57192483Y-24165908D01*
X57132883Y-24159501D01*
X57132881Y-24159500D01*
X57132873Y-24159500D01*
X57132864Y-24159500D01*
X55337129Y-24159500D01*
X55337123Y-24159501D01*
X55277516Y-24165908D01*
X55142671Y-24216202D01*
X55142664Y-24216206D01*
X55027455Y-24302452D01*
X55027452Y-24302455D01*
X54941206Y-24417664D01*
X54941202Y-24417671D01*
X54890908Y-24552517D01*
X54884501Y-24612116D01*
X54884501Y-24612123D01*
X54884500Y-24612135D01*
X52995499Y-24612135D01*
X52995499Y-24612128D01*
X52989091Y-24552517D01*
X52938796Y-24417669D01*
X52938795Y-24417668D01*
X52938793Y-24417664D01*
X52852547Y-24302455D01*
X52852544Y-24302452D01*
X52737335Y-24216206D01*
X52737328Y-24216202D01*
X52602482Y-24165908D01*
X52602483Y-24165908D01*
X52542883Y-24159501D01*
X52542881Y-24159500D01*
X52542873Y-24159500D01*
X52542864Y-24159500D01*
X50747129Y-24159500D01*
X50747123Y-24159501D01*
X50687516Y-24165908D01*
X50552671Y-24216202D01*
X50552664Y-24216206D01*
X50437455Y-24302452D01*
X50437452Y-24302455D01*
X50351206Y-24417664D01*
X50351202Y-24417671D01*
X50300908Y-24552517D01*
X50294501Y-24612116D01*
X50294501Y-24612123D01*
X50294500Y-24612135D01*
X48405499Y-24612135D01*
X48405499Y-24612128D01*
X48399091Y-24552517D01*
X48348796Y-24417669D01*
X48348795Y-24417668D01*
X48348793Y-24417664D01*
X48262547Y-24302455D01*
X48262544Y-24302452D01*
X48147335Y-24216206D01*
X48147328Y-24216202D01*
X48012482Y-24165908D01*
X48012483Y-24165908D01*
X47952883Y-24159501D01*
X47952881Y-24159500D01*
X47952873Y-24159500D01*
X47952864Y-24159500D01*
X46157129Y-24159500D01*
X46157123Y-24159501D01*
X46097516Y-24165908D01*
X45962671Y-24216202D01*
X45962664Y-24216206D01*
X45847455Y-24302452D01*
X45847452Y-24302455D01*
X45761206Y-24417664D01*
X45761202Y-24417671D01*
X45710908Y-24552517D01*
X45704501Y-24612116D01*
X45704501Y-24612123D01*
X45704500Y-24612135D01*
X32200500Y-24612135D01*
X32200500Y-20899983D01*
X103199500Y-20899983D01*
X103199500Y-22500001D01*
X103199501Y-22500018D01*
X103210000Y-22602796D01*
X103210001Y-22602799D01*
X103265185Y-22769331D01*
X103265186Y-22769334D01*
X103357288Y-22918656D01*
X103481344Y-23042712D01*
X103630666Y-23134814D01*
X103797203Y-23189999D01*
X103899991Y-23200500D01*
X105500008Y-23200499D01*
X105602797Y-23189999D01*
X105769334Y-23134814D01*
X105918656Y-23042712D01*
X106042712Y-22918656D01*
X106134814Y-22769334D01*
X106189999Y-22602797D01*
X106200500Y-22500009D01*
X106200499Y-21581947D01*
X108200000Y-21581947D01*
X108200000Y-21818052D01*
X108236934Y-22051247D01*
X108309897Y-22275802D01*
X108417087Y-22486174D01*
X108477338Y-22569104D01*
X108477340Y-22569105D01*
X109217037Y-21829408D01*
X109234075Y-21892993D01*
X109299901Y-22007007D01*
X109392993Y-22100099D01*
X109507007Y-22165925D01*
X109570590Y-22182962D01*
X108830893Y-22922658D01*
X108913828Y-22982914D01*
X109124197Y-23090102D01*
X109348752Y-23163065D01*
X109348751Y-23163065D01*
X109581948Y-23200000D01*
X109818052Y-23200000D01*
X110051247Y-23163065D01*
X110275802Y-23090102D01*
X110486163Y-22982918D01*
X110486169Y-22982914D01*
X110569104Y-22922658D01*
X110569105Y-22922658D01*
X109829408Y-22182962D01*
X109892993Y-22165925D01*
X110007007Y-22100099D01*
X110100099Y-22007007D01*
X110165925Y-21892993D01*
X110182962Y-21829409D01*
X110922658Y-22569105D01*
X110922658Y-22569104D01*
X110982914Y-22486169D01*
X110982918Y-22486163D01*
X111090102Y-22275802D01*
X111163065Y-22051247D01*
X111200000Y-21818052D01*
X111200000Y-21581947D01*
X111163065Y-21348752D01*
X111090102Y-21124197D01*
X110982914Y-20913828D01*
X110922658Y-20830894D01*
X110922658Y-20830893D01*
X110182962Y-21570590D01*
X110165925Y-21507007D01*
X110100099Y-21392993D01*
X110007007Y-21299901D01*
X109892993Y-21234075D01*
X109829409Y-21217037D01*
X110569105Y-20477340D01*
X110569104Y-20477339D01*
X110486174Y-20417087D01*
X110452606Y-20399983D01*
X120699500Y-20399983D01*
X120699500Y-22000001D01*
X120699501Y-22000018D01*
X120710000Y-22102796D01*
X120710001Y-22102799D01*
X120742211Y-22200000D01*
X120765186Y-22269334D01*
X120857288Y-22418656D01*
X120981344Y-22542712D01*
X121130666Y-22634814D01*
X121297203Y-22689999D01*
X121399991Y-22700500D01*
X123000008Y-22700499D01*
X123102797Y-22689999D01*
X123269334Y-22634814D01*
X123418656Y-22542712D01*
X123542712Y-22418656D01*
X123634814Y-22269334D01*
X123689999Y-22102797D01*
X123700500Y-22000009D01*
X123700499Y-21081947D01*
X125700000Y-21081947D01*
X125700000Y-21318052D01*
X125736934Y-21551247D01*
X125809897Y-21775802D01*
X125917087Y-21986174D01*
X125977338Y-22069104D01*
X125977340Y-22069105D01*
X126717037Y-21329408D01*
X126734075Y-21392993D01*
X126799901Y-21507007D01*
X126892993Y-21600099D01*
X127007007Y-21665925D01*
X127070590Y-21682962D01*
X126330893Y-22422658D01*
X126413828Y-22482914D01*
X126624197Y-22590102D01*
X126848752Y-22663065D01*
X126848751Y-22663065D01*
X127081948Y-22700000D01*
X127318052Y-22700000D01*
X127551247Y-22663065D01*
X127775802Y-22590102D01*
X127986163Y-22482918D01*
X127986169Y-22482914D01*
X128069104Y-22422658D01*
X128069105Y-22422658D01*
X127329408Y-21682962D01*
X127392993Y-21665925D01*
X127507007Y-21600099D01*
X127600099Y-21507007D01*
X127665925Y-21392993D01*
X127682962Y-21329409D01*
X128422658Y-22069105D01*
X128422658Y-22069104D01*
X128482914Y-21986169D01*
X128482918Y-21986163D01*
X128590102Y-21775802D01*
X128663065Y-21551247D01*
X128700000Y-21318052D01*
X128700000Y-21081947D01*
X128663065Y-20848752D01*
X128590102Y-20624197D01*
X128482914Y-20413828D01*
X128422658Y-20330894D01*
X128422658Y-20330893D01*
X127682962Y-21070590D01*
X127665925Y-21007007D01*
X127600099Y-20892993D01*
X127507007Y-20799901D01*
X127392993Y-20734075D01*
X127329409Y-20717037D01*
X128069105Y-19977340D01*
X128069104Y-19977338D01*
X127986174Y-19917087D01*
X127775802Y-19809897D01*
X127551247Y-19736934D01*
X127551248Y-19736934D01*
X127318052Y-19700000D01*
X127081948Y-19700000D01*
X126848752Y-19736934D01*
X126624197Y-19809897D01*
X126413830Y-19917084D01*
X126330894Y-19977340D01*
X127070591Y-20717037D01*
X127007007Y-20734075D01*
X126892993Y-20799901D01*
X126799901Y-20892993D01*
X126734075Y-21007007D01*
X126717037Y-21070591D01*
X125977340Y-20330894D01*
X125917084Y-20413830D01*
X125809897Y-20624197D01*
X125736934Y-20848752D01*
X125700000Y-21081947D01*
X123700499Y-21081947D01*
X123700499Y-20399992D01*
X123693440Y-20330893D01*
X123689999Y-20297203D01*
X123689998Y-20297200D01*
X123679390Y-20265187D01*
X123634814Y-20130666D01*
X123542712Y-19981344D01*
X123418656Y-19857288D01*
X123269334Y-19765186D01*
X123102797Y-19710001D01*
X123102795Y-19710000D01*
X123000010Y-19699500D01*
X121399998Y-19699500D01*
X121399981Y-19699501D01*
X121297203Y-19710000D01*
X121297200Y-19710001D01*
X121130668Y-19765185D01*
X121130663Y-19765187D01*
X120981342Y-19857289D01*
X120857289Y-19981342D01*
X120765187Y-20130663D01*
X120765186Y-20130666D01*
X120710001Y-20297203D01*
X120710001Y-20297204D01*
X120710000Y-20297204D01*
X120699500Y-20399983D01*
X110452606Y-20399983D01*
X110275802Y-20309897D01*
X110051247Y-20236934D01*
X110051248Y-20236934D01*
X109818052Y-20200000D01*
X109581948Y-20200000D01*
X109348752Y-20236934D01*
X109124197Y-20309897D01*
X108913830Y-20417084D01*
X108830894Y-20477340D01*
X109570591Y-21217037D01*
X109507007Y-21234075D01*
X109392993Y-21299901D01*
X109299901Y-21392993D01*
X109234075Y-21507007D01*
X109217037Y-21570591D01*
X108477340Y-20830894D01*
X108417084Y-20913830D01*
X108309897Y-21124197D01*
X108236934Y-21348752D01*
X108200000Y-21581947D01*
X106200499Y-21581947D01*
X106200499Y-20899992D01*
X106193440Y-20830893D01*
X106189999Y-20797203D01*
X106189998Y-20797200D01*
X106157789Y-20700000D01*
X106134814Y-20630666D01*
X106042712Y-20481344D01*
X105918656Y-20357288D01*
X105769334Y-20265186D01*
X105602797Y-20210001D01*
X105602795Y-20210000D01*
X105500010Y-20199500D01*
X103899998Y-20199500D01*
X103899981Y-20199501D01*
X103797203Y-20210000D01*
X103797200Y-20210001D01*
X103630668Y-20265185D01*
X103630663Y-20265187D01*
X103481342Y-20357289D01*
X103357289Y-20481342D01*
X103265187Y-20630663D01*
X103265186Y-20630666D01*
X103210001Y-20797203D01*
X103210001Y-20797204D01*
X103210000Y-20797204D01*
X103199500Y-20899983D01*
X32200500Y-20899983D01*
X32200500Y-24500D01*
X32220185Y42539D01*
X32272989Y88294D01*
X32324500Y99500D01*
X148075500Y99500D01*
X148142539Y79815D01*
G37*
%TD.AperFunction*%
%TD*%
M02*
